<svg width="35" height="35" viewBox="0 0 35 35" fill="none" xmlns="http://www.w3.org/2000/svg">
<mask id="mask0_1_654" style="mask-type:alpha" maskUnits="userSpaceOnUse" x="0" y="0" width="35" height="35">
<rect x="0.5" y="0.5" width="34" height="34" fill="white" stroke="#707070"/>
</mask>
<g mask="url(#mask0_1_654)">
<path d="M10.9458 34.9692C10.6498 34.81 10.4481 34.5864 10.5506 34.2296C10.6532 33.8741 10.943 33.8037 11.2787 33.8044C13.2126 33.8092 15.1458 33.8071 17.0796 33.8071H17.5014V33.4291C17.5014 29.642 17.5042 25.8549 17.4939 22.0685C17.4939 21.8805 17.4276 21.6631 17.321 21.5086C15.0323 18.1856 12.7306 14.8716 10.4426 11.5473C10.2813 11.3128 10.1487 11.2807 9.89097 11.3668C6.96998 12.3457 3.98335 10.7646 3.12408 7.79707C2.39742 5.28691 3.86783 2.42402 6.33423 1.54629C8.96744 0.609766 11.6875 1.69941 12.9104 4.20889C13.1162 4.63066 13.2112 5.10986 13.3288 5.56924C13.3787 5.76406 13.4334 5.8543 13.6569 5.85361C17.74 5.84678 21.8238 5.8502 25.9069 5.84268C26.0231 5.84268 26.1824 5.78184 26.2494 5.69434C26.7716 5.00732 27.2754 4.30664 27.8606 3.50752C27.7574 3.44668 27.6295 3.40156 27.542 3.31543C26.7894 2.57236 26.0422 1.82383 25.2964 1.07324C25.1078 0.883203 25.0086 0.66377 25.1283 0.394434C25.2438 0.133984 25.4544 0.0314453 25.7292 0.0314453C27.6172 0.0314453 29.5053 0.0287109 31.3934 0.0341797C31.8302 0.0355469 32.0538 0.246777 32.0558 0.682227C32.064 2.58125 32.0599 4.48027 32.0599 6.37998C32.0599 6.65615 31.9505 6.8749 31.686 6.97266C31.4255 7.06904 31.1993 6.98018 31.0051 6.78535C30.3147 6.09219 29.6202 5.40381 28.9318 4.70928C28.8443 4.62109 28.7835 4.50762 28.6789 4.36201C28.2954 4.88633 27.97 5.33135 27.5906 5.84951C27.8462 5.84951 28.0308 5.84951 28.2161 5.84951C28.5462 5.84951 28.8949 5.81328 29.0829 6.17695C29.264 6.52695 29.0398 6.78193 28.8586 7.04375C25.5583 11.8091 22.2606 16.5765 18.9527 21.3377C18.7483 21.6316 18.6567 21.9188 18.6574 22.2783C18.6683 25.9745 18.6642 29.67 18.6642 33.3662V33.8085C18.8167 33.8085 18.9377 33.8085 19.0593 33.8085C21.0158 33.8085 22.9722 33.8071 24.9287 33.8099C25.453 33.8105 25.7661 34.1469 25.6102 34.5639C25.5521 34.719 25.3921 34.8366 25.278 34.9713H10.9458V34.9692ZM11.2199 10.636C13.5386 13.9856 15.8 17.2512 18.0866 20.5529C20.4046 17.2047 22.6974 13.894 25.0155 10.5458C24.9041 10.5321 24.8405 10.5178 24.7776 10.5178C20.4122 10.5164 16.0461 10.5157 11.6806 10.5212C11.548 10.5212 11.414 10.5855 11.2199 10.636ZM9.52457 10.2505C9.45005 10.1384 9.3899 10.0434 9.32564 9.95108C8.63521 8.95166 7.94683 7.9502 7.25093 6.9542C7.08072 6.71016 6.944 6.46611 7.09576 6.16944C7.24957 5.86865 7.53463 5.84746 7.82925 5.84815C9.15884 5.8502 10.4884 5.84883 11.8173 5.84883C11.9363 5.84883 12.0552 5.84883 12.1762 5.84883C12.1099 4.41465 10.8111 2.93604 9.29009 2.51289C7.57564 2.03643 5.75455 2.71387 4.78384 4.18975C3.80494 5.67793 3.89449 7.60225 5.00738 8.98926C6.08472 10.3318 7.93179 10.8603 9.52457 10.2505ZM12.6438 9.32764C12.6787 9.33174 12.7532 9.34815 12.8284 9.34815C16.3304 9.34951 19.8325 9.35156 23.3345 9.33994C23.4733 9.33994 23.6544 9.23399 23.7419 9.11983C24.2068 8.5169 24.6484 7.89688 25.0961 7.28096C25.146 7.2126 25.1836 7.13672 25.2568 7.01436H14.0274C13.4258 7.01436 13.4552 7.02324 13.2795 7.60567C13.1045 8.18604 12.8626 8.7459 12.6452 9.32695L12.6438 9.32764ZM27.242 1.20996C28.4485 2.41582 29.6769 3.64492 30.8732 4.84053V1.20996H27.242ZM8.72818 7.0376C9.26207 7.80869 9.73511 8.55586 10.2888 9.23809C10.4009 9.37617 10.9266 9.38643 11.077 9.25108C11.7128 8.67686 12.0716 7.92559 12.1926 7.03828L8.72818 7.0376ZM25.0545 9.31738C25.5343 9.38916 25.8919 9.39326 26.1578 8.92432C26.4859 8.34531 26.9063 7.81895 27.2843 7.26797C27.3295 7.20235 27.3568 7.12442 27.393 7.05195C26.9268 6.92139 26.6486 7.08272 26.4039 7.45527C25.991 8.08418 25.5227 8.67686 25.0545 9.31738Z" fill="black"/>
<path d="M20.9934 14.59C20.99 14.9106 20.7193 15.1792 20.4082 15.1703C20.0931 15.1615 19.8272 14.8873 19.8306 14.5743C19.834 14.2557 20.0993 14 20.4226 14.0035C20.75 14.0062 20.9968 14.2598 20.9934 14.59Z" fill="black"/>
<path d="M15.7451 14.5762C15.4355 14.5707 15.1825 14.3164 15.1812 14.0102C15.1798 13.6971 15.4628 13.4161 15.7711 13.425C16.0712 13.4339 16.333 13.7012 16.3357 14.002C16.3385 14.3212 16.0691 14.5823 15.7451 14.5762Z" fill="black"/>
<path d="M18.0933 11.6907C18.4221 11.6962 18.673 11.9601 18.6586 12.2848C18.645 12.5883 18.3852 12.8364 18.0762 12.8406C17.7761 12.8447 17.4945 12.5439 17.5088 12.2349C17.5232 11.9218 17.7775 11.686 18.0933 11.6907Z" fill="black"/>
<path d="M22.7446 11.6738C22.7541 11.9685 22.4944 12.2351 22.1861 12.2481C21.862 12.261 21.5934 12.0054 21.5913 11.682C21.5886 11.3778 21.8395 11.1133 22.143 11.0996C22.4486 11.0859 22.7343 11.3587 22.7446 11.6738Z" fill="black"/>
<path d="M18.6841 17.4951C18.3778 17.5027 18.1174 17.2586 18.1023 16.9483C18.0859 16.6195 18.3286 16.3542 18.6561 16.3419C18.9719 16.3303 19.2481 16.6003 19.2467 16.9189C19.2453 17.2176 18.9808 17.4876 18.6841 17.4951Z" fill="black"/>
</g>
</svg>
