<svg width="35" height="35" viewBox="0 0 35 35" fill="none" xmlns="http://www.w3.org/2000/svg">
<mask id="mask0_1_677" style="mask-type:alpha" maskUnits="userSpaceOnUse" x="0" y="0" width="35" height="35">
<rect x="0.5" y="0.5" width="34" height="34" fill="white" stroke="#707070"/>
</mask>
<g mask="url(#mask0_1_677)">
<path d="M34.9577 30.8185C34.8107 30.811 34.6638 30.7966 34.5168 30.7966C27.8189 30.7953 21.1218 30.7959 14.4239 30.7959C14.2783 30.7959 14.132 30.7959 13.9625 30.7959V29.7876H16.997V22.5921C16.4296 22.4588 15.8499 22.3235 15.2395 22.1799C14.7691 23.0214 14.063 23.6312 13.1087 23.932C12.166 24.2287 11.2493 24.1364 10.4775 23.7488C9.98808 24.0714 9.56562 24.3442 9.15137 24.6286C9.08916 24.6709 9.02559 24.7653 9.02559 24.8357C9.02148 26.4503 9.02627 28.0643 9.03105 29.6789C9.03105 29.6981 9.05088 29.7172 9.07891 29.7692H10.8453V30.7693H0.0424805V29.7904C0.174414 29.7842 0.29541 29.774 0.415723 29.774C1.73506 29.7726 3.05371 29.7719 4.37305 29.774C4.5542 29.774 4.70391 29.7849 4.70254 29.5204C4.69434 27.7806 4.69775 26.0409 4.69639 24.3011C4.69639 24.2464 4.67725 24.1924 4.66426 24.122C3.2875 24.0174 2.18555 23.4418 1.52246 22.2032C0.863477 20.972 0.99541 19.7532 1.74941 18.5138C1.56689 18.5138 1.42881 18.5193 1.29004 18.5131C0.796485 18.4913 0.410254 18.2807 0.194922 17.8268C-0.0122067 17.3914 0.0376956 16.9648 0.315235 16.569C0.745899 15.9551 1.1793 15.3426 1.60996 14.7288C1.67285 14.6392 1.72959 14.5449 1.83008 14.389C1.59424 14.389 1.41719 14.3972 1.2415 14.3876C0.267383 14.3371 -0.251465 13.3219 0.290625 12.5016C0.710352 11.8665 1.16221 11.2534 1.59902 10.6292C1.66123 10.5397 1.71729 10.446 1.81094 10.2998C1.6332 10.2998 1.51289 10.297 1.39326 10.2998C0.870996 10.3148 0.454688 10.1227 0.211328 9.64829C-0.0299803 9.17729 0.0472658 8.72885 0.352149 8.30366C0.815625 7.65698 1.27021 7.00414 1.72822 6.35336C2.54648 5.19194 3.36338 4.02983 4.18164 2.86909C4.78867 2.00776 5.62471 1.99956 6.22764 2.85336C7.49229 4.64506 8.7501 6.44291 10.0202 8.23051C10.3347 8.6728 10.4659 9.12807 10.2164 9.63188C9.95732 10.1541 9.49795 10.3271 8.9415 10.2991C8.85332 10.295 8.76445 10.2991 8.59355 10.2991C9.01738 10.904 9.40361 11.4557 9.81309 12.0415C9.5376 12.2357 9.27236 12.423 8.97978 12.6294C8.4999 11.9493 8.01865 11.2896 7.56543 10.6115C7.4082 10.3756 7.23936 10.2813 6.95498 10.2929C6.38896 10.3162 5.8209 10.2998 5.23164 10.2998V9.27641C5.82432 9.27641 6.40195 9.27641 6.97891 9.27641C7.66113 9.27641 8.34336 9.2812 9.02559 9.27368C9.32978 9.27026 9.39883 9.14038 9.22451 8.89155C7.92568 7.04038 6.62207 5.19194 5.31846 3.34419C5.29385 3.31001 5.25557 3.2854 5.19814 3.23344C5.1209 3.33188 5.04912 3.4146 4.98691 3.50346C3.74893 5.25893 2.51094 7.01372 1.27842 8.77329C1.19981 8.88608 1.17041 9.03305 1.11777 9.1643C1.2627 9.20122 1.40762 9.26889 1.55322 9.27094C2.42754 9.2812 3.30117 9.27573 4.20488 9.27573V10.2991C3.89863 10.2991 3.604 10.2806 3.31348 10.308C3.1877 10.3196 3.02773 10.3941 2.95596 10.4925C2.36807 11.3012 1.79453 12.1208 1.22578 12.9432C1.16289 13.0341 1.12051 13.177 1.14648 13.2748C1.16084 13.3288 1.33789 13.3643 1.4418 13.365C2.38584 13.3718 3.3292 13.3691 4.27324 13.3691C4.39766 13.3691 4.52207 13.3691 4.6793 13.3691V14.3924C4.24727 14.3924 3.81865 14.4006 3.39004 14.389C3.19111 14.3835 3.0585 14.4334 2.93818 14.6091C2.37969 15.4247 1.80137 16.2272 1.23809 17.04C1.17314 17.1336 1.15811 17.2622 1.11982 17.3749C1.2415 17.4139 1.36113 17.47 1.48623 17.4871C1.63115 17.5069 1.78154 17.4871 1.9292 17.4925C2.45352 17.5144 2.94912 17.4604 3.44609 17.2314C3.83711 17.0509 4.29717 17.0202 4.76338 16.9149C4.77568 15.7357 5.25078 14.7329 6.229 13.9918C6.92559 13.4641 7.71992 13.231 8.59355 13.2905C10.1036 13.393 11.8522 14.6372 11.9172 16.9723C13.0185 16.9832 13.9755 17.3626 14.7131 18.2035C15.4507 19.0443 15.7405 20.0307 15.5785 21.1976C16.0413 21.3145 16.4973 21.43 17.0045 21.5579C17.0127 21.3863 17.023 21.2687 17.023 21.1504C17.0243 20.3547 17.0147 19.5583 17.0291 18.7626C17.0339 18.5241 16.9553 18.3614 16.7878 18.2007C16.312 17.7455 15.852 17.2738 15.3741 16.798C15.623 16.5546 15.8574 16.3256 16.1028 16.0857C16.5622 16.5581 17.0209 17.0297 17.4823 17.5041C18.0504 16.932 18.5897 16.3892 19.1216 15.854C19.4121 16.1322 19.6466 16.3571 19.9002 16.6004C19.3499 17.1507 18.7955 17.688 18.265 18.2479C18.1481 18.3716 18.0606 18.5753 18.0559 18.7449C18.0347 19.5515 18.0456 20.3595 18.047 21.1668C18.047 21.2673 18.0565 21.3671 18.0647 21.5367C18.5221 21.428 18.9473 21.3268 19.3991 21.2195C19.2316 20.082 19.5064 19.0914 20.2304 18.2417C20.9495 17.3975 21.8874 17.0003 22.9805 16.9737C23.3934 14.551 24.658 13.2871 26.6083 13.2775C28.0616 13.27 30.0946 14.4416 30.1746 16.975C30.8473 16.9832 31.4605 17.2328 32.0962 17.4358C32.6021 17.5978 33.1995 17.5062 33.7532 17.4693C34.0157 17.4522 33.9337 17.2437 33.823 17.0872C33.436 16.5396 33.0519 15.99 32.6636 15.4431C32.4202 15.1006 32.2391 14.6337 31.9062 14.4581C31.5746 14.2831 31.0879 14.402 30.6688 14.3931C30.5677 14.3911 30.4658 14.3931 30.34 14.3931V13.3698C30.6415 13.3698 30.9348 13.3698 31.2273 13.3698C32.0231 13.3698 32.8194 13.3739 33.6151 13.3643C33.7149 13.3629 33.8441 13.3165 33.9022 13.244C33.9357 13.2023 33.8735 13.054 33.8202 12.9774C33.2364 12.1379 32.6499 11.2992 32.0504 10.4707C31.9855 10.3811 31.8351 10.3162 31.7188 10.3073C31.427 10.284 31.1316 10.2998 30.8158 10.2998V9.27641C30.9293 9.27641 31.0482 9.27641 31.1665 9.27641C31.9855 9.27641 32.8037 9.28051 33.6227 9.27368C33.9385 9.27094 34.0096 9.15063 33.8373 8.90454C32.5316 7.0438 31.2205 5.18716 29.9101 3.33051C29.8916 3.30454 29.8608 3.28676 29.8048 3.23755C29.733 3.32573 29.6599 3.40434 29.5983 3.49116C28.3542 5.2562 27.1101 7.02055 25.8721 8.79038C25.7955 8.89975 25.773 9.04741 25.7258 9.17797C25.8618 9.21079 25.9979 9.27094 26.1339 9.27231C27.2256 9.27983 28.3173 9.27641 29.409 9.27641C29.5307 9.27641 29.6523 9.27641 29.7959 9.27641V10.2998C29.1971 10.2998 28.6092 10.3114 28.0227 10.2943C27.78 10.2868 27.6303 10.3613 27.4922 10.565C27.028 11.2513 26.542 11.9233 26.0471 12.6253C25.7668 12.4298 25.5002 12.2439 25.2124 12.0429C25.6116 11.4707 25.9972 10.9177 26.4326 10.2943C26.1831 10.2943 26.0067 10.3032 25.8311 10.2929C24.8761 10.2382 24.3538 9.23198 24.8795 8.4267C25.289 7.79848 25.7367 7.19555 26.1688 6.58237C27.0458 5.33686 27.9222 4.09204 28.8006 2.8479C29.3912 2.01118 30.2355 2.01049 30.8268 2.8479C32.0914 4.6396 33.3554 6.43266 34.6139 8.22915C34.7485 8.42192 34.8436 8.64272 34.957 8.85053V9.39604C34.644 10.1494 34.0485 10.4016 33.1831 10.2738C33.313 10.4624 33.382 10.5595 33.4483 10.6593C33.9515 11.4208 34.4546 12.1824 34.9577 12.9439V13.4894C34.6412 14.2557 34.0308 14.4984 33.2105 14.3747C33.8236 15.3091 34.3903 16.1732 34.9577 17.0373V17.5828C34.6624 18.3573 34.0554 18.5965 33.2248 18.5042C33.9911 19.745 34.1189 20.9727 33.4552 22.2114C32.7955 23.4425 31.6895 24.0099 30.3455 24.1248V29.7726C30.513 29.7726 30.6579 29.7726 30.8035 29.7726C32.1885 29.7801 33.5728 29.7876 34.9577 29.7952V30.8185ZM6.05264 18.2664C5.85166 18.2206 5.71016 18.1672 5.56523 18.1597C5.04775 18.1324 4.51182 18.0278 4.01621 18.1228C2.98809 18.3197 2.20742 19.302 2.13838 20.3301C2.06113 21.4751 2.68184 22.4875 3.71885 22.9066C4.546 23.2409 5.32256 23.1103 6.054 22.6345C6.32402 22.4588 6.58311 22.2661 6.86338 22.0706C7.07803 22.6728 7.19971 23.2894 7.85801 23.6469C7.85801 22.6653 7.86348 21.7486 7.84981 20.8326C7.84844 20.7403 7.75 20.6364 7.67344 20.5605C7.28721 20.1756 6.89414 19.7976 6.50039 19.4141C6.78272 19.1318 7.0377 18.8761 7.33643 18.5767C7.6919 18.9616 8.04531 19.3437 8.4377 19.7668C8.85127 19.328 9.2293 18.9267 9.58682 18.5473C9.87803 18.8358 10.131 19.0867 10.4283 19.3813C10.3271 19.462 10.2123 19.5385 10.1159 19.6342C9.7543 19.9952 9.25801 20.3048 9.07959 20.743C8.89639 21.1935 9.02422 21.7711 9.01943 22.2927C9.01601 22.6947 9.01943 23.0966 9.01943 23.5553C9.58476 23.1705 9.65791 22.5805 9.88144 22.074C10.1761 22.2825 10.4372 22.4828 10.7134 22.6591C11.3354 23.0549 12.002 23.2074 12.73 23.0016C14.0473 22.6291 14.8478 21.2981 14.5395 19.9835C14.2229 18.6334 12.9638 17.8289 11.5562 18.0838C11.2486 18.1392 10.9444 18.2144 10.6102 18.2869C10.686 17.9013 10.7667 17.5623 10.8187 17.2184C10.9834 16.1397 10.5924 15.29 9.68457 14.7089C8.78633 14.134 7.84707 14.1436 6.95566 14.724C6.03486 15.3235 5.68691 16.2046 5.85439 17.2861C5.90225 17.5971 5.97744 17.9041 6.05127 18.265L6.05264 18.2664ZM26.0724 23.6319C26.0854 23.5225 26.0977 23.4692 26.0977 23.4165C26.099 22.5867 26.1065 21.7568 26.0908 20.9269C26.0888 20.7998 26.0061 20.648 25.9145 20.5523C25.5405 20.1606 25.1488 19.7853 24.794 19.4346C25.0777 19.1489 25.3293 18.8953 25.6533 18.5685C25.991 18.9424 26.3376 19.3266 26.6931 19.7197C27.1046 19.3328 27.4929 18.9684 27.8586 18.6246C28.1382 18.8898 28.4 19.1373 28.6721 19.395C28.5381 19.5228 28.4144 19.6397 28.292 19.758C27.957 20.0813 27.4922 20.3499 27.324 20.7444C27.1511 21.1504 27.2652 21.6795 27.2598 22.1546C27.255 22.6031 27.2591 23.0508 27.2591 23.5628C27.8306 23.178 27.9105 22.5901 28.13 22.0678C28.3761 22.2462 28.5921 22.4103 28.8156 22.5634C29.4726 23.0146 30.1787 23.2258 30.9751 23.003C32.2835 22.6359 33.0908 21.3172 32.7935 20.0239C32.4715 18.6198 31.2232 17.8172 29.7809 18.0893C29.4862 18.1447 29.1936 18.2137 28.9045 18.2752C28.9735 17.7229 29.0918 17.2088 29.0904 16.6941C29.0884 15.3132 27.836 14.2249 26.3998 14.3077C25.0196 14.3876 23.9225 15.6666 24.0797 17.0297C24.1262 17.431 24.2157 17.8268 24.2909 18.2561C23.9997 18.1953 23.7276 18.1317 23.4521 18.0825C21.2824 17.6949 20.2112 19.5508 20.391 20.8326C20.6569 22.7295 22.6045 23.6626 24.2403 22.6721C24.537 22.4923 24.8118 22.2777 25.1092 22.0699C25.3272 22.6468 25.4352 23.2648 26.0717 23.6298L26.0724 23.6319ZM26.0826 29.75V24.7468C25.7962 24.6019 25.5166 24.4959 25.2787 24.3298C25.0312 24.1569 24.8255 23.9258 24.5985 23.718C22.8957 24.5499 20.7971 24.0243 19.7266 22.1977C19.1722 22.3269 18.6232 22.4547 18.0668 22.5839V29.75L26.0826 29.75ZM7.85938 29.7706C7.85938 28.1081 7.86279 26.4982 7.85049 24.889C7.85049 24.8077 7.72744 24.7106 7.64131 24.6497C7.28447 24.3989 6.92217 24.1548 6.55576 23.9169C6.45117 23.8493 6.29463 23.7385 6.21875 23.7727C6.01162 23.8664 5.68897 23.8383 5.71426 24.241C5.74981 24.8172 5.72315 25.3976 5.72315 25.9766C5.72315 27.1339 5.72178 28.2913 5.7252 29.4486C5.7252 29.5826 5.66641 29.7699 5.9084 29.7699C6.54141 29.7712 7.1751 29.7706 7.85938 29.7706ZM27.2584 29.7459H29.2996C29.2996 29.5956 29.2996 29.4711 29.2996 29.3474V24.6785C29.2996 24.2141 29.0902 23.8953 28.6714 23.7221C28.6522 23.7139 28.627 23.7214 28.6044 23.7214C28.2715 24.0461 27.916 24.3442 27.5175 24.565C27.311 24.6798 27.2536 24.7837 27.255 24.9998C27.2632 26.4654 27.2591 27.9303 27.2591 29.3959L27.2584 29.7459Z" fill="black"/>
<path d="M12.723 14.5578C12.4134 14.4368 12.1201 14.3227 11.8296 14.2085C12.3163 12.5734 14.2912 10.4132 17.2505 10.2956C20.3704 10.1712 22.562 12.2958 23.2012 14.2065C22.91 14.3206 22.6167 14.4355 22.2968 14.5612C21.3589 12.5132 19.7907 11.3319 17.5205 11.3278C15.2619 11.3237 13.6931 12.4838 12.723 14.5578Z" fill="black"/>
<path d="M4.04502 6.57886C4.33623 6.78394 4.59258 6.9644 4.87832 7.16606C4.6876 7.44019 4.50439 7.70269 4.29863 7.998C4.02041 7.80591 3.75723 7.62476 3.46191 7.42104C3.65674 7.1394 3.83926 6.87554 4.04502 6.57886Z" fill="black"/>
<path d="M28.8826 7.99399C28.5894 7.78755 28.333 7.60708 28.0493 7.40747C28.2448 7.12788 28.4287 6.86538 28.6352 6.57007C28.9141 6.76694 29.1752 6.9522 29.4657 7.15728C29.2702 7.43823 29.087 7.70005 28.8826 7.99399Z" fill="black"/>
<path d="M12.9645 30.7748H11.978V29.7959H12.9645V30.7748Z" fill="black"/>
<path d="M22.5941 31.8027V32.7816H21.6016V31.8027H22.5941Z" fill="black"/>
<path d="M23.6494 31.792H24.6311V32.7798H23.6494V31.792Z" fill="black"/>
<path d="M16.2246 13.5927C15.9635 13.7602 15.7372 13.9051 15.4877 14.065C15.2696 13.8162 15.0563 13.5722 14.813 13.2946C15.1466 13.0813 15.4556 12.8831 15.7974 12.665C15.9532 13.0027 16.0838 13.2864 16.2246 13.5927Z" fill="black"/>
<path d="M13.5894 15.206C13.7514 14.8642 13.899 14.5524 14.0651 14.2031C14.3646 14.3891 14.638 14.5593 14.9183 14.7329C14.7836 15.0234 14.6612 15.2866 14.5286 15.573C14.2142 15.45 13.9141 15.3331 13.5894 15.206Z" fill="black"/>
<path d="M3.19727 19.5125H4.17412V20.503H3.19727V19.5125Z" fill="black"/>
<path d="M22.6011 19.5193V20.492H21.6099V19.5193H22.6011Z" fill="black"/>
</g>
</svg>
