<svg width="30" height="32" viewBox="0 0 30 32" fill="none" xmlns="http://www.w3.org/2000/svg">
<path fill-rule="evenodd" clip-rule="evenodd" d="M15.0012 10.0504C15.0003 10.0504 14.9997 10.0504 14.9988 10.0504H2.91667V12.5504H27.0833V10.0504H15.0012ZM27.9167 15.0504H28.3333C29.0237 15.0504 29.5833 14.4907 29.5833 13.8004V8.80039C29.5833 8.11004 29.0237 7.55039 28.3333 7.55039H23.5538C24.2367 7.08039 24.842 6.48976 25.1677 5.74861C25.4273 5.15779 25.4943 4.50081 25.3073 3.82834C25.127 3.18029 24.7347 2.60083 24.217 2.08318C23.1372 1.00326 21.8853 0.576576 20.5948 0.813059C19.4033 1.03141 18.3758 1.78163 17.5535 2.60403C16.5645 3.59311 15.6932 4.86916 15 6.07088C14.3068 4.86914 13.4355 3.59309 12.4463 2.60401C11.624 1.78161 10.5966 1.03141 9.40497 0.813059C8.11449 0.576576 6.86269 1.00326 5.78277 2.08318C5.26512 2.60083 4.87279 3.18031 4.69252 3.82836C4.50545 4.50084 4.57252 5.15783 4.83219 5.74864C5.15792 6.48978 5.76317 7.08039 6.44609 7.55039H1.66667C0.976322 7.55039 0.416672 8.11004 0.416672 8.80039V13.8004C0.416672 14.4907 0.976322 15.0504 1.66667 15.0504H2.08334V30.4671C2.08334 31.1574 2.64299 31.7171 3.33334 31.7171H26.6667C27.357 31.7171 27.9167 31.1574 27.9167 30.4671V15.0504ZM25.4167 15.0504H4.58334V29.2171H25.4167V15.0504ZM17.2073 7.24804C18.6972 6.96258 20.2552 6.50418 21.4122 5.91548C22.3413 5.44279 22.761 5.01113 22.8788 4.74279C22.9187 4.65221 22.9233 4.58653 22.8987 4.49836C22.8673 4.38578 22.765 4.16664 22.4492 3.85094C21.8625 3.26419 21.4128 3.20478 21.0455 3.27211C20.579 3.35758 19.992 3.70111 19.3213 4.37176C18.5395 5.15354 17.8118 6.20901 17.2073 7.24804ZM12.7927 7.24804C12.1882 6.20901 11.4604 5.15356 10.6786 4.37178C10.008 3.70113 9.42079 3.35758 8.95437 3.27211C8.58687 3.20478 8.13727 3.26419 7.55054 3.85094C7.23484 4.16664 7.13239 4.38576 7.10107 4.49834C7.07654 4.58649 7.08109 4.65218 7.1209 4.74278C7.23884 5.01111 7.65857 5.44278 8.58765 5.91546C9.74477 6.50418 11.3027 6.96258 12.7927 7.24804Z" fill="#232936"/>
</svg>
