<svg width="35" height="35" viewBox="0 0 35 35" fill="none" xmlns="http://www.w3.org/2000/svg">
<mask id="mask0_1_630" style="mask-type:alpha" maskUnits="userSpaceOnUse" x="0" y="0" width="35" height="35">
<rect x="0.5" y="0.5" width="34" height="34" fill="white" stroke="#707070"/>
</mask>
<g mask="url(#mask0_1_630)">
<path d="M0.0348671 9.86291C0.254301 9.20803 0.631644 8.69191 1.30977 8.46017C1.90108 8.25783 2.46778 8.32414 3.01534 8.63517C5.32452 9.95041 7.63916 11.2574 9.94834 12.572C10.9115 13.1202 11.2362 14.1361 10.7495 15.0357C10.2553 15.951 9.10547 16.3147 8.16006 15.8444C7.82852 15.6796 7.51065 15.4868 7.15039 15.2865V24.5205C9.22032 24.9676 10.3004 26.2493 10.4022 28.3808H12.5214C12.5522 28.2536 12.5788 28.121 12.6157 27.9918C12.9199 26.9295 13.6233 26.2302 14.6337 25.8385C14.8839 25.7414 14.9461 25.6218 14.9434 25.3723C14.9311 24.0987 14.9509 22.8252 14.9331 21.5517C14.9208 20.6664 15.2257 19.9418 15.8744 19.3382C16.5067 18.7496 17.1192 18.1392 17.7235 17.5219C17.8356 17.4077 17.9197 17.217 17.9266 17.057C17.9512 16.4917 17.9361 15.9243 17.9361 15.3166C17.3947 15.3166 16.8855 15.2947 16.3789 15.3214C15.6003 15.3624 15.0336 15.0596 14.6016 14.4081C14.0109 13.5188 13.3636 12.667 12.7654 11.7818C12.2698 11.0483 12.3942 10.0796 13.0211 9.47257C13.6568 8.85802 14.6563 8.77326 15.3672 9.29757C15.5641 9.44249 15.7336 9.638 15.8785 9.83761C16.2326 10.3243 16.571 10.8234 16.9032 11.3258C17.016 11.496 17.1514 11.5316 17.3482 11.5603C17.9601 11.6498 18.3374 11.4249 18.6047 10.8657C18.8234 10.4077 19.1413 9.99757 19.4134 9.56486C19.425 9.5464 19.425 9.52111 19.4298 9.49923C17.1008 7.87775 16.8827 5.37238 18.1166 3.48839C17.6442 3.00441 17.3305 2.42814 17.4337 1.72745C17.4904 1.34191 17.6306 0.961829 17.7816 0.600208C17.8972 0.324036 18.159 0.223548 18.4372 0.363001C19.5392 0.914661 20.7149 0.989857 21.9215 0.99054C24.3148 0.991907 25.9321 2.64074 25.926 5.0422C25.9232 6.08536 25.7763 7.11896 25.2403 8.03087C24.93 8.55929 24.4897 9.01046 24.0748 9.54025C24.284 9.84103 24.5335 10.2184 24.8069 10.5779C24.8732 10.6654 25.0141 10.7071 25.1289 10.7468C26.127 11.0906 27.1264 11.4297 28.1251 11.7708C29.0616 12.0907 29.5101 12.721 29.5107 13.7184C29.5114 14.7759 29.5142 15.8334 29.5101 16.8909C29.506 17.986 28.7198 18.7995 27.6698 18.8036C26.6239 18.807 25.8364 17.9936 25.8269 16.8937C25.8221 16.3365 25.805 15.778 25.8337 15.223C25.8508 14.8928 25.7216 14.7697 25.3757 14.7691C25.2314 15.4827 25.1241 16.2114 24.9307 16.9162C24.7372 17.6203 24.9813 18.2643 25.0913 18.9274C25.2246 19.7333 25.4044 20.5324 25.5507 21.3363C25.5903 21.553 25.6901 21.6583 25.9 21.7294C27.4265 22.2462 28.9502 22.7705 30.4712 23.3044C31.2929 23.5929 31.5034 24.0413 31.2054 24.8671C30.8198 25.9349 30.4165 26.9958 30.0214 28.0595C29.9831 28.162 29.9537 28.268 29.9086 28.4095C30.5949 28.4095 31.2409 28.3965 31.8862 28.4122C33.6513 28.4546 35.0096 29.8915 34.9624 31.6531C34.9193 33.263 33.5938 34.6145 31.9833 34.6897C31.8356 34.6965 31.688 34.6951 31.5396 34.6951C21.6248 34.6951 11.71 34.6951 1.79443 34.6951C0.7458 34.6951 0.332226 34.2809 0.332226 33.2281C0.332226 30.8062 0.350683 28.3842 0.321972 25.9629C0.311718 25.0818 0.797754 24.4399 1.78486 24.5198C2.14648 24.5492 2.51221 24.5246 2.87588 24.5246H3.2457C3.25391 24.3804 3.26621 24.2608 3.26621 24.1411C3.26758 23.0836 3.26689 22.0261 3.26689 20.9686C3.26689 20.8777 3.26348 20.786 3.26963 20.6958C3.29287 20.341 3.48428 20.1394 3.78779 20.1442C4.07764 20.1489 4.26084 20.3438 4.28613 20.6815C4.29365 20.7833 4.29023 20.8859 4.29023 20.9884C4.29023 22.0343 4.29023 23.0809 4.29023 24.1268C4.29023 24.2491 4.29023 24.3708 4.29023 24.5082H6.10449V24.1391C6.10449 21.1032 6.10039 18.0674 6.11201 15.0316C6.1127 14.7636 6.02861 14.6248 5.79961 14.5052C5.30947 14.2502 4.83301 13.9672 4.29023 13.661C4.29023 13.8401 4.29023 13.9604 4.29023 14.08C4.29023 15.3419 4.29023 16.6045 4.29023 17.8664C4.29023 17.9799 4.29023 18.0947 4.27588 18.2068C4.24033 18.47 4.0667 18.615 3.81855 18.6348C3.56494 18.6546 3.37627 18.5213 3.30859 18.2725C3.27031 18.133 3.26963 17.9806 3.26963 17.8336C3.26689 16.3557 3.26348 14.8771 3.27305 13.3991C3.27441 13.1674 3.21152 13.03 2.99756 12.9172C2.44521 12.626 1.91953 12.2828 1.3624 12.0026C0.724609 11.6826 0.237207 11.2492 0.0341797 10.5444L0.0348671 9.86291ZM20.4046 22.1396C19.9821 22.3747 19.5815 22.6085 19.1707 22.8218C18.9807 22.9209 18.9308 23.0535 18.9321 23.2586C18.9451 24.85 18.9472 26.4421 18.954 28.0335C18.954 28.1531 18.967 28.2721 18.9752 28.4081C19.1536 28.4081 19.2897 28.4081 19.425 28.4081C20.3007 28.4081 21.1757 28.404 22.0514 28.4122C22.3651 28.415 22.5593 28.6029 22.5757 28.8805C22.5921 29.1505 22.4082 29.3713 22.1115 29.4185C21.9892 29.4376 21.862 29.4308 21.7369 29.4308C18.0988 29.4308 14.4607 29.4308 10.822 29.4308H10.4057V31.0352C10.5889 31.0352 10.7461 31.0352 10.9033 31.0352C17.7816 31.0352 24.66 31.0352 31.539 31.0352C31.675 31.0352 31.8138 31.027 31.9471 31.0502C32.2144 31.0974 32.3736 31.2621 32.3757 31.541C32.3777 31.8199 32.2205 31.9888 31.9546 32.0373C31.8001 32.066 31.6374 32.0571 31.4788 32.0571C24.6005 32.0578 17.7222 32.0578 10.8432 32.0578C10.6996 32.0578 10.5554 32.0578 10.4064 32.0578V33.6725C10.5451 33.6725 10.6572 33.6725 10.77 33.6725C17.7167 33.6725 24.6634 33.6725 31.6101 33.6725C31.7235 33.6725 31.8377 33.6745 31.9512 33.6677C33.0483 33.6014 33.9281 32.6758 33.9404 31.5773C33.9534 30.3892 33.0244 29.4404 31.8049 29.4342C29.4629 29.4226 27.1209 29.4308 24.7789 29.428C24.6326 29.428 24.446 29.4547 24.3496 29.3781C24.1979 29.2585 24.0358 29.0739 24.0064 28.8955C23.9661 28.6522 24.1562 28.4765 24.4057 28.4225C24.526 28.3965 24.6545 28.4068 24.7796 28.4068C25.5507 28.4054 26.3218 28.4068 27.0546 28.4068C26.9869 27.8237 26.8994 27.2658 26.8687 26.7053C26.8564 26.4756 26.8112 26.3724 26.5856 26.2972C25.1973 25.8323 23.8178 25.3415 22.4294 24.8774C21.8552 24.6853 21.4464 24.3394 21.1955 23.7863C20.9474 23.2395 20.676 22.7029 20.4032 22.1382L20.4046 22.1396ZM9.32081 33.6738C9.33926 33.6007 9.3543 33.5686 9.3543 33.5364C9.35499 31.7406 9.38848 29.9442 9.34405 28.149C9.30577 26.6075 8.16485 25.5548 6.62745 25.5507C5.00186 25.5466 3.37696 25.5589 1.75137 25.5418C1.42461 25.5384 1.35079 25.6505 1.35215 25.9527C1.36172 28.3849 1.36172 30.8171 1.35215 33.2493C1.35079 33.5658 1.42803 33.6841 1.76983 33.6814C3.55401 33.665 5.33887 33.6738 7.12305 33.6738C7.84971 33.6738 8.57569 33.6738 9.32081 33.6738ZM20.4025 9.934C19.9343 10.6675 19.4824 11.362 19.0477 12.0675C18.9766 12.183 18.9526 12.3444 18.9526 12.4845C18.9492 13.8824 18.9561 15.2804 18.9595 16.6783C18.9595 16.7877 18.9595 16.8971 18.9595 17.0078H23.8855C24.0591 16.1274 24.23 15.264 24.405 14.3767C23.4869 14.1251 22.6208 13.8312 22.4 12.7832C22.1833 11.7544 22.6646 11.066 23.5703 10.6121C23.4309 10.4118 23.3208 10.2245 23.18 10.0639C23.1212 9.99758 22.9845 9.94016 22.9052 9.96066C22.0739 10.1808 21.2468 10.2033 20.4025 9.934ZM23.6947 18.079C23.5553 18.0626 23.5122 18.053 23.4698 18.053C21.9358 18.0524 20.4019 18.0483 18.8679 18.0599C18.74 18.0606 18.5855 18.1392 18.4905 18.2301C17.8404 18.8487 17.2108 19.4893 16.5573 20.1045C16.1403 20.4969 15.953 20.959 15.9592 21.5291C15.9729 22.7787 15.9633 24.029 15.9633 25.2786C15.9633 25.3894 15.9633 25.5008 15.9633 25.6293H17.9149C17.9149 24.8254 17.945 24.042 17.9054 23.2627C17.8726 22.6222 18.1248 22.2161 18.6813 21.9222C19.5843 21.4457 20.4894 20.9652 21.3514 20.4203C21.9406 20.0478 22.4882 19.5939 22.9968 19.116C23.2805 18.8494 23.4466 18.4577 23.6947 18.079ZM18.9725 4.08176C18.898 4.20207 18.8337 4.29435 18.7811 4.39347C17.5622 6.70744 19.4052 8.72609 21.0697 9.04738C22.3351 9.29143 23.5095 8.81428 24.204 7.81008C24.4214 7.49494 24.4925 7.22219 24.2573 6.89269C23.9812 6.50578 23.7535 6.08264 23.4541 5.71555C23.0563 5.22678 22.5381 4.89455 21.8928 4.83576C20.8906 4.74416 19.924 4.52609 18.9725 4.08176ZM27.9323 23.4787C27.166 23.2244 26.4558 22.9524 25.725 22.7562C24.9826 22.5572 24.5991 22.132 24.5123 21.361C24.4398 20.7136 24.2703 20.0765 24.1288 19.3601C23.3666 20.4032 22.3788 21.0561 21.3042 21.6392C21.5858 22.2236 21.8695 22.789 22.1314 23.3646C22.2592 23.6455 22.4615 23.8089 22.7466 23.906C23.9272 24.3066 25.105 24.7147 26.2842 25.1187C26.5795 25.2198 26.8762 25.3162 27.1858 25.4188C27.4381 24.7632 27.6773 24.1425 27.9323 23.4787ZM2.00362 9.33381C1.3043 9.36594 0.83809 10.0297 1.16758 10.567C1.26739 10.7297 1.44922 10.861 1.6208 10.9594C3.87666 12.248 6.13731 13.5283 8.39659 14.8101C8.48545 14.8607 8.57364 14.9133 8.66797 14.9516C9.12667 15.1396 9.65235 14.9488 9.86084 14.523C10.0611 14.1135 9.90938 13.7266 9.43018 13.4538C7.13194 12.1475 4.83369 10.8425 2.53203 9.5423C2.36866 9.45002 2.17998 9.40217 2.00362 9.33381ZM28.4881 15.2537C28.4881 14.6973 28.4895 14.1415 28.4881 13.5851C28.4867 13.2023 28.3042 12.924 27.948 12.7989C26.7825 12.3902 25.6143 11.9896 24.4412 11.6027C23.9757 11.4488 23.5238 11.7079 23.3967 12.1611C23.2798 12.5775 23.4999 12.9869 23.9565 13.1496C24.714 13.4203 25.4775 13.6746 26.2384 13.9364C26.7613 14.1162 26.8502 14.2434 26.8509 14.8067C26.8509 15.4991 26.8461 16.1916 26.8529 16.8841C26.8577 17.4228 27.192 17.7823 27.6685 17.7796C28.1511 17.7769 28.4833 17.4207 28.4881 16.8882C28.4929 16.3434 28.4888 15.7986 28.4881 15.2537ZM24.8391 5.58361C25.1248 3.71877 24.1903 2.47736 22.765 2.10002C22.3993 2.00295 21.9994 2.03986 21.6159 2.00705C20.8831 1.94416 20.1482 1.89357 19.4195 1.79992C19.1126 1.76027 18.818 1.6256 18.5179 1.534C18.3272 2.1383 18.5295 2.59836 19.1584 2.99416C19.935 3.48293 20.8045 3.71261 21.7027 3.77961C22.7274 3.85617 23.543 4.28752 24.2259 5.02922C24.4064 5.22541 24.6224 5.38879 24.8391 5.58361ZM17.9102 12.5788C17.5971 12.5788 17.3243 12.5665 17.0536 12.5816C16.6879 12.6021 16.4315 12.4606 16.2299 12.1523C15.832 11.5452 15.4164 10.9491 14.9953 10.3578C14.7096 9.95656 14.2352 9.86427 13.8599 10.1145C13.4668 10.377 13.369 10.8637 13.6568 11.2779C14.2967 12.2008 14.9488 13.1161 15.6051 14.028C15.6789 14.1306 15.8102 14.2564 15.9182 14.2598C16.5813 14.281 17.2457 14.2707 17.9102 14.2707V12.5788ZM17.9088 26.6759C17.1527 26.6759 16.4179 26.6684 15.683 26.6779C14.7615 26.6903 14.1319 27.1694 13.7122 27.9569C13.6473 28.0793 13.6302 28.2277 13.5844 28.3856H17.9081L17.9088 26.6759ZM28.8969 23.8171C28.564 24.6935 28.2092 25.5165 27.9433 26.3676C27.7594 26.9562 27.8797 27.5687 28.1648 28.1149C28.2393 28.257 28.4724 28.3507 28.6487 28.3876C28.7157 28.4013 28.8675 28.2058 28.9153 28.0807C29.3453 26.9596 29.7616 25.8337 30.18 24.7078C30.2224 24.5944 30.2504 24.4754 30.2935 24.3319C29.83 24.161 29.3863 23.9976 28.8969 23.8171Z" fill="black"/>
<path d="M4.75974 30.3946C4.92996 30.3946 5.09949 30.3892 5.26902 30.396C5.55749 30.407 5.74001 30.5546 5.77214 30.8451C5.80496 31.1398 5.64705 31.3565 5.37224 31.3845C4.95867 31.4269 4.53484 31.4248 4.12058 31.3865C3.8574 31.3619 3.70974 31.1439 3.72751 30.8725C3.74529 30.6018 3.91482 30.4357 4.1821 30.4042C4.37214 30.3817 4.56628 30.4001 4.75906 30.4001V30.396L4.75974 30.3946Z" fill="black"/>
<path d="M4.72364 28.981C4.54249 28.981 4.36065 28.994 4.18087 28.9783C3.90401 28.9543 3.74815 28.78 3.72833 28.5134C3.70919 28.2578 3.84659 28.039 4.09337 28.0151C4.52882 27.9734 4.97315 27.9727 5.40929 28.0069C5.6629 28.0267 5.78595 28.2427 5.77638 28.5011C5.76612 28.7616 5.61915 28.9325 5.3669 28.9673C5.15636 28.9967 4.93829 28.9735 4.72296 28.9735C4.72296 28.9762 4.72364 28.9783 4.72364 28.981Z" fill="black"/>
</g>
</svg>
