<svg width="35" height="35" viewBox="0 0 35 35" fill="none" xmlns="http://www.w3.org/2000/svg">
<mask id="mask0_1_639" style="mask-type:alpha" maskUnits="userSpaceOnUse" x="0" y="0" width="35" height="35">
<rect x="0.5" y="0.5" width="34" height="34" fill="white" stroke="#707070"/>
</mask>
<g mask="url(#mask0_1_639)">
<path d="M9.1682 24.921C10.1157 23.4998 11.0426 22.1108 11.9668 20.7203C12.0031 20.6663 12.0379 20.5959 12.0366 20.5337C12.0208 19.8754 12.0297 19.2151 11.9662 18.5609C11.919 18.0796 11.5539 17.9142 11.1219 18.1302C9.90785 18.7379 8.70199 18.7338 7.48861 18.1247C7.07367 17.9162 6.74418 18.0858 6.65258 18.541C6.61224 18.7406 6.60267 18.9457 6.5808 19.1487C6.54594 19.4721 6.32103 19.6881 6.02504 19.6813C5.72904 19.6744 5.47679 19.4461 5.5014 19.1269C5.53217 18.7229 5.57045 18.3031 5.70717 17.9272C6.01137 17.0925 7.01488 16.683 7.82767 17.0925C8.83461 17.599 9.78207 17.5915 10.7917 17.0939C11.7898 16.6024 12.8705 17.2648 13.0599 18.4153C13.0852 18.5697 13.105 18.7249 13.1269 18.878C13.3149 18.7571 13.4824 18.649 13.6779 18.5233C13.6779 16.9783 13.671 15.3986 13.6827 13.8181C13.6854 13.4688 13.7155 13.1112 13.7968 12.7722C14.0593 11.6771 15.1196 11.178 16.1292 11.6778C16.845 12.0325 17.5709 12.1487 18.3379 11.8999C18.5204 11.8404 18.6954 11.755 18.8691 11.6716C19.8651 11.1945 20.9342 11.675 21.1919 12.7428C21.2767 13.0921 21.3129 13.4612 21.3157 13.8215C21.3286 15.402 21.3211 16.9818 21.3211 18.5219C21.518 18.6518 21.6841 18.7612 21.8666 18.8815C21.8912 18.7188 21.9124 18.5527 21.9411 18.3879C22.1531 17.1807 23.2584 16.6092 24.357 17.1554C25.0624 17.5061 25.7816 17.6031 26.5342 17.3571C26.727 17.2942 26.9095 17.1971 27.0948 17.111C28.0552 16.6625 29.1175 17.1513 29.3766 18.1774C29.4511 18.472 29.4887 18.781 29.5024 19.0852C29.5181 19.4324 29.2891 19.6703 28.9815 19.6813C28.6745 19.6922 28.4476 19.4659 28.4175 19.1221C28.4038 18.9642 28.395 18.8042 28.3662 18.649C28.2555 18.0543 27.9622 17.906 27.4256 18.1685C26.5424 18.6005 25.623 18.7058 24.6748 18.4433C24.3816 18.3619 24.1054 18.2211 23.8224 18.1042C23.4444 17.9484 23.0786 18.0919 23.0472 18.4877C22.9823 19.3012 22.985 20.1201 22.9672 20.937C22.9659 20.9986 23.0137 21.0628 23.0465 21.1223C23.8012 22.4833 24.5573 23.8437 25.3133 25.204C25.34 25.2519 25.3735 25.2949 25.4234 25.3701C25.7761 24.8677 26.23 24.5649 26.8302 24.6018C27.116 24.6195 27.4154 24.6995 27.6738 24.8239C28.533 25.2368 29.3759 25.2478 30.2304 24.8267C31.4144 24.2429 32.5061 24.8014 32.7166 26.1009C32.7563 26.347 32.7809 26.5979 32.7816 26.8467C32.787 28.5871 32.785 30.3269 32.7843 32.0673C32.7843 32.6053 32.6032 32.7878 32.0727 32.7892C31.0835 32.7912 30.0944 32.7912 29.1045 32.7892C28.6629 32.7885 28.4312 32.5971 28.4326 32.2444C28.4339 31.8916 28.667 31.6995 29.1059 31.6988C29.9563 31.6968 30.806 31.6988 31.6926 31.6988C31.6926 31.5478 31.6926 31.4268 31.6926 31.3051C31.6926 29.8381 31.6947 28.3704 31.6906 26.9034C31.6906 26.6997 31.6762 26.494 31.64 26.2937C31.5333 25.6983 31.2394 25.554 30.6987 25.8165C29.7451 26.28 28.762 26.362 27.7524 26.0305C27.5377 25.9601 27.3347 25.8548 27.1276 25.7625C26.7953 25.6155 26.5773 25.6716 26.3592 25.9676C26.2847 26.0681 26.1904 26.1645 26.1528 26.2779C26.1131 26.3976 26.081 26.5623 26.1329 26.6614C26.4652 27.2951 26.8316 27.911 27.1624 28.5447C27.2575 28.7273 27.3149 28.9508 27.3183 29.1566C27.334 30.1341 27.3272 31.113 27.3244 32.0905C27.3231 32.6019 27.1371 32.7885 26.6238 32.7892C20.1761 32.7899 13.7285 32.7899 7.2808 32.7892C6.76742 32.7892 6.58216 32.6032 6.5808 32.0905C6.57875 31.1014 6.56986 30.1115 6.589 29.1224C6.5931 28.9207 6.66693 28.6958 6.77631 28.5256C7.34711 27.6369 7.9391 26.7626 8.53109 25.8719C8.33695 25.6456 8.1141 25.6415 7.88578 25.7577C6.65326 26.3859 5.42621 26.3866 4.19027 25.7625C3.79652 25.5636 3.4684 25.74 3.37679 26.1754C3.3392 26.3525 3.3098 26.535 3.30912 26.7148C3.30365 28.3068 3.3057 29.8996 3.3057 31.4917C3.3057 31.5471 3.31185 31.6018 3.318 31.6982C3.82455 31.6982 4.32084 31.6961 4.81713 31.6982C5.24847 31.7009 5.48431 31.906 5.47269 32.2601C5.46175 32.6019 5.23617 32.7871 4.81781 32.7885C4.16976 32.7912 3.52172 32.7919 2.87299 32.7885C2.40951 32.7858 2.21468 32.5889 2.214 32.1186C2.21195 30.3214 2.20717 28.5242 2.22015 26.7277C2.2222 26.4133 2.27347 26.092 2.35345 25.7871C2.60843 24.8144 3.66117 24.2894 4.56078 24.7412C5.57045 25.2478 6.52611 25.2498 7.52416 24.733C8.0724 24.4486 8.62953 24.5772 9.16683 24.9224L9.1682 24.921ZM25.8328 28.4101C25.7925 28.3253 25.772 28.2754 25.746 28.2282C24.2025 25.4487 22.6562 22.6706 21.1208 19.8863C21.0149 19.6949 20.8836 19.6826 20.7066 19.6826C18.558 19.6854 16.4102 19.6881 14.2617 19.6785C14.0381 19.6778 13.9192 19.7537 13.7996 19.9342C11.9846 22.6699 10.1621 25.4009 8.34242 28.1339C8.2891 28.2139 8.24535 28.3007 8.18246 28.4101H25.8328ZM26.2184 29.536H7.70121V31.6797H26.2184V29.536ZM18.0925 13.1167C18.1315 13.2473 18.1718 13.3881 18.2156 13.5276C18.5109 14.4695 18.8028 15.4129 19.1036 16.3529C19.2061 16.6741 19.1439 16.9257 18.8657 17.1308C18.528 17.3803 18.2019 17.6469 17.8683 17.9032C17.6181 18.096 17.3652 18.0899 17.1204 17.893C16.8374 17.6647 16.5565 17.4343 16.2748 17.2032C15.8462 16.8519 15.823 16.7726 15.9857 16.2387C16.3056 15.1894 16.6262 14.1407 16.9379 13.1201C16.456 12.9417 16.0048 12.766 15.5468 12.6088C15.2392 12.5029 14.9377 12.6655 14.8632 12.9896C14.8051 13.2418 14.7757 13.5057 14.7744 13.7648C14.7662 15.1969 14.7703 16.6297 14.7703 18.0618C14.7703 18.2286 14.7703 18.3954 14.7703 18.5704H20.2137C20.2199 18.5062 20.2281 18.4624 20.2281 18.418C20.2281 16.804 20.2308 15.1894 20.2233 13.5754C20.2226 13.3738 20.1857 13.1666 20.1317 12.9718C20.0435 12.6539 19.7448 12.5049 19.4344 12.615C18.999 12.7701 18.5683 12.9376 18.0911 13.116L18.0925 13.1167ZM17.5573 15.0773C17.5347 15.0738 17.5121 15.0704 17.4896 15.067C17.3659 15.4621 17.2531 15.8607 17.1157 16.251C17.0268 16.5026 17.223 16.5778 17.359 16.6673C17.4329 16.7158 17.5969 16.7158 17.6666 16.6646C17.7999 16.5661 18.0365 16.5203 17.9264 16.2366C17.7808 15.8593 17.6783 15.4649 17.5573 15.0773Z" fill="black"/>
<path d="M30.6027 14.2242C30.079 14.2242 29.5923 14.2263 29.1056 14.2242C28.6736 14.2222 28.4247 14.0226 28.422 13.6821C28.4193 13.3417 28.6695 13.1359 29.0981 13.1332C29.5855 13.1305 30.0722 13.1332 30.6027 13.1332V12.749C30.6027 9.87109 30.6027 6.99385 30.6027 4.11592C30.6027 3.45078 30.4543 3.30518 29.7748 3.30518C21.5868 3.30518 13.3987 3.30518 5.21059 3.30518C4.55297 3.30518 4.39984 3.45488 4.39984 4.09814C4.39984 6.98701 4.39984 9.87656 4.39984 12.7654C4.39984 12.8762 4.39984 12.9869 4.39984 13.1332C4.91596 13.1332 5.40131 13.1318 5.88734 13.1332C6.32348 13.1353 6.5723 13.3273 6.58051 13.665C6.58939 14.0144 6.33031 14.2222 5.87914 14.2242C5.40268 14.2263 4.92621 14.2242 4.406 14.2242C4.406 14.4389 4.38207 14.6419 4.41146 14.8367C4.45795 15.1491 4.66439 15.3091 4.98022 15.3146C5.30971 15.32 5.63988 15.3111 5.96938 15.318C6.34262 15.3255 6.58119 15.5429 6.58051 15.8628C6.58051 16.1827 6.34125 16.4001 5.96732 16.4063C5.61459 16.4124 5.26186 16.4151 4.9098 16.4049C4.01703 16.3789 3.31361 15.6796 3.31156 14.7807C3.30404 11.1296 3.30336 7.47852 3.31156 3.82676C3.31361 2.9169 4.03412 2.22305 4.95424 2.21348C5.85248 2.20391 6.75141 2.21143 7.64965 2.21143C15.042 2.21143 22.4337 2.21143 29.8261 2.21143C31.0566 2.21143 31.6944 2.85059 31.6944 4.08311C31.6944 7.5749 31.6944 11.0674 31.6944 14.5592C31.6944 15.7616 31.0443 16.4069 29.8357 16.4076C29.5513 16.4076 29.2669 16.4158 28.9826 16.4042C28.6408 16.3905 28.4118 16.1533 28.422 15.8443C28.4316 15.5483 28.6537 15.331 28.9826 15.3187C29.2779 15.3077 29.5739 15.3166 29.8692 15.3152C30.4256 15.3132 30.6013 15.1368 30.6027 14.5804C30.6027 14.4785 30.6027 14.3773 30.6027 14.2242Z" fill="black"/>
<path d="M6.58257 5.51045C6.58257 7.03691 6.58257 8.53672 6.58257 10.0365C6.58257 10.4802 6.58462 10.9231 6.58188 11.3668C6.57915 11.7906 6.36655 12.0442 6.0268 12.0374C5.698 12.0312 5.49223 11.7865 5.49155 11.3818C5.4895 9.2668 5.48882 7.15176 5.49155 5.03672C5.49155 4.59443 5.69526 4.39824 6.14575 4.39687C7.19165 4.39346 8.23755 4.39551 9.28344 4.39551C15.7523 4.39551 22.2211 4.39551 28.69 4.39551C29.364 4.39551 29.5103 4.5418 29.5103 5.21309C29.5103 7.21465 29.5103 9.21553 29.5103 11.2171C29.5103 11.308 29.5144 11.3996 29.5083 11.4898C29.4843 11.8146 29.2649 12.0354 28.9682 12.0374C28.6715 12.0395 28.4425 11.82 28.4227 11.4967C28.4104 11.293 28.4186 11.0872 28.4186 10.8828C28.4186 9.22236 28.4186 7.5626 28.4186 5.90215V5.50977L6.58257 5.51045Z" fill="black"/>
<path d="M19.6827 9.30783C19.684 10.5123 18.6983 11.496 17.4938 11.4933C16.2913 11.4905 15.3111 10.5007 15.3179 9.29484C15.3241 8.10607 16.3002 7.13127 17.4897 7.12648C18.6962 7.1217 19.6813 8.10265 19.6827 9.30783ZM17.5157 10.4016C18.107 10.3934 18.5951 9.89504 18.591 9.30304C18.5869 8.71105 18.0933 8.22023 17.5013 8.21955C16.895 8.21955 16.3973 8.72678 16.4096 9.33449C16.4219 9.9258 16.923 10.4091 17.5157 10.4016Z" fill="black"/>
<path d="M11.4938 14.7561C11.5 15.9619 10.5197 16.9511 9.3166 16.9538C8.11279 16.9566 7.12705 15.9715 7.12842 14.7677C7.12979 13.5769 8.09981 12.5973 9.28789 12.5877C10.4951 12.5781 11.4877 13.553 11.4938 14.7561ZM10.4021 14.7691C10.4015 14.1771 9.90996 13.6835 9.31797 13.6801C8.72461 13.6767 8.229 14.1627 8.2208 14.7554C8.2126 15.3624 8.71504 15.8669 9.3207 15.8621C9.91201 15.8573 10.4028 15.3611 10.4021 14.7691Z" fill="black"/>
<path d="M25.6991 16.953C24.4946 16.9571 23.5075 15.9748 23.5068 14.771C23.5068 13.5658 24.4905 12.5835 25.6964 12.5869C26.8865 12.5897 27.8641 13.5617 27.8723 14.7512C27.8805 15.957 26.9016 16.9489 25.6991 16.953ZM25.6827 13.6793C25.09 13.6827 24.5999 14.1742 24.5985 14.7676C24.5972 15.3603 25.0853 15.8552 25.6779 15.8613C26.2829 15.8675 26.7874 15.3609 26.7799 14.756C26.7724 14.1647 26.2747 13.6759 25.6827 13.6793Z" fill="black"/>
<path d="M6.04355 24.5978C4.83906 24.6012 3.85332 23.6175 3.854 22.413C3.854 21.2085 4.84043 20.2269 6.04629 20.231C7.23643 20.2351 8.2126 21.2085 8.21943 22.398C8.22627 23.6038 7.246 24.595 6.04355 24.5978ZM6.0415 23.5054C6.6335 23.5026 7.12568 23.0091 7.12705 22.4171C7.12842 21.8251 6.63897 21.3288 6.04766 21.3234C5.44063 21.3172 4.93887 21.821 4.94639 22.428C4.95322 23.02 5.44883 23.5088 6.0415 23.5054Z" fill="black"/>
<path d="M31.1468 22.4212C31.144 23.6244 30.1535 24.6046 28.9483 24.5978C27.7472 24.591 26.7711 23.597 26.7813 22.3905C26.7916 21.2024 27.7719 20.2324 28.962 20.2317C30.1672 20.2317 31.1495 21.2154 31.1468 22.4212ZM28.9777 23.5054C29.569 23.4979 30.0578 23.0009 30.0544 22.4089C30.0516 21.8169 29.5581 21.3248 28.9661 21.3234C28.3591 21.322 27.8614 21.8292 27.873 22.437C27.8847 23.0283 28.385 23.5129 28.9777 23.5054Z" fill="black"/>
<path d="M17.1249 27.3288C15.2149 27.3288 13.305 27.3267 11.395 27.3315C11.1168 27.3322 10.8741 27.2946 10.734 27.0177C10.6 26.7539 10.7114 26.5426 10.857 26.3246C12.0007 24.6156 13.1443 22.9066 14.2757 21.1887C14.4733 20.8893 14.707 20.7683 15.0646 20.7711C16.6443 20.7847 18.2248 20.7861 19.8053 20.7711C20.1929 20.7676 20.4383 20.8982 20.6256 21.2414C21.5566 22.9456 22.5048 24.6402 23.4461 26.3389C23.7797 26.9412 23.548 27.3288 22.8548 27.3288C20.9448 27.3288 19.0349 27.3288 17.1249 27.3288ZM12.2598 26.2166H22.1056C22.081 26.1509 22.0707 26.1072 22.0495 26.0696C21.3065 24.7298 20.5668 23.3872 19.808 22.0555C19.7506 21.9544 19.5599 21.8785 19.4307 21.8771C18.1127 21.8641 16.7941 21.8758 15.4761 21.8634C15.2327 21.8614 15.0905 21.9291 14.9552 22.1369C14.128 23.4008 13.2852 24.6546 12.4478 25.9117C12.3869 26.0026 12.3329 26.0969 12.2598 26.2166Z" fill="black"/>
</g>
</svg>
