<svg width="35" height="35" viewBox="0 0 35 35" fill="none" xmlns="http://www.w3.org/2000/svg">
<mask id="mask0_1_621" style="mask-type:alpha" maskUnits="userSpaceOnUse" x="0" y="0" width="35" height="35">
<rect x="0.5" y="0.5" width="34" height="34" fill="white" stroke="#707070"/>
</mask>
<g mask="url(#mask0_1_621)">
<path d="M32.7832 17.4835C32.7989 25.8965 25.9473 32.7687 17.524 32.7899C9.10215 32.8111 2.21562 25.9314 2.21631 17.4993C2.21699 9.08013 9.07412 2.21753 17.4919 2.2107C25.9083 2.20386 32.7675 9.05416 32.7832 17.4835ZM7.19082 8.2858C4.04082 12.0223 2.8541 16.2982 4.16455 21.0444C5.66162 26.4673 9.29971 29.8689 14.7992 31.0406C19.2699 31.9928 23.2566 30.7569 26.7368 27.7826C26.6609 27.6985 26.6247 27.6547 26.5851 27.6151C24.1248 25.1535 21.6666 22.6898 19.1968 20.2377C19.0792 20.1209 18.8611 20.0504 18.6902 20.0498C14.9722 20.0395 11.2541 20.0422 7.53535 20.0416C6.81006 20.0416 6.58311 19.8098 6.58242 19.0777C6.58242 18.1336 6.58174 17.1896 6.58242 16.2449C6.58242 15.5661 6.83125 15.3152 7.50527 15.3152C9.62031 15.3145 11.7354 15.3152 13.8504 15.3152H14.2141C11.8632 12.9623 9.54307 10.6401 7.19082 8.2858ZM27.7875 26.6813C32.4605 21.635 32.7401 13.2008 27.268 7.72525C21.7944 2.2483 13.3527 2.53677 8.2914 7.23853C8.34336 7.29732 8.39258 7.35884 8.44795 7.41422C11.0203 9.98863 13.5913 12.5651 16.1726 15.1306C16.2833 15.2407 16.487 15.307 16.6477 15.3077C19.7744 15.3179 22.9019 15.3152 26.0286 15.3152C26.6992 15.3152 26.9645 15.5736 26.9665 16.2346C26.9692 17.2012 26.9699 18.1685 26.9665 19.1351C26.9645 19.7852 26.7074 20.0395 26.0525 20.0409C24.5404 20.0429 23.0276 20.0416 21.5155 20.0416H21.1512C23.3879 22.279 25.5877 24.4808 27.7875 26.6813ZM8.05078 18.5698H17.5596C16.9929 18.0079 16.4884 17.489 15.9586 16.9975C15.826 16.8745 15.6106 16.7767 15.4322 16.776C13.0923 16.7617 10.7523 16.7658 8.4124 16.7671C8.29277 16.7671 8.17383 16.7788 8.05078 16.7856V18.5698ZM17.8036 16.7808C18.2637 17.2395 18.693 17.6121 19.0539 18.042C19.4224 18.4809 19.8394 18.6504 20.4102 18.6033C21.0042 18.5541 21.6058 18.5923 22.1971 18.5923V16.7808L17.8036 16.7808ZM25.4756 18.5746V16.7863H23.7126V18.5746H25.4756Z" fill="black"/>
<path d="M22.6928 14.5714C22.2019 14.5632 21.8089 14.0498 22.0406 13.6212C22.3352 13.075 22.1937 12.5712 22.07 12.0435C21.962 11.5807 21.8314 11.12 21.7651 10.651C21.692 10.137 21.7699 9.62905 22.0502 9.17582C22.299 8.77387 22.7085 8.65287 23.0694 8.85795C23.4304 9.06371 23.4741 9.44994 23.3333 9.89701C23.2301 10.2238 23.2342 10.6086 23.2854 10.9539C23.375 11.5568 23.5664 12.144 23.6607 12.7462C23.7359 13.2234 23.6477 13.6978 23.403 14.1278C23.2472 14.4012 23.027 14.5803 22.6928 14.5714Z" fill="black"/>
<path d="M26.7953 12.9917C26.6661 13.3888 26.5779 13.8011 26.3995 14.1695C26.2019 14.5776 25.7378 14.6877 25.383 14.4812C25.0248 14.2734 24.9202 13.8407 25.1505 13.4456C25.3837 13.0457 25.2545 12.6465 25.1553 12.2568C24.979 11.565 24.7124 10.8848 24.806 10.1568C24.8498 9.81639 24.9503 9.4657 25.1068 9.16219C25.3201 8.7493 25.7637 8.65223 26.1226 8.86961C26.4678 9.07811 26.569 9.47937 26.3564 9.88133C26.1329 10.3045 26.2539 10.7215 26.3523 11.1405C26.4945 11.7448 26.6408 12.3484 26.7953 12.9917Z" fill="black"/>
</g>
</svg>
