<svg width="35" height="35" viewBox="0 0 35 35" fill="none" xmlns="http://www.w3.org/2000/svg">
<mask id="mask0_1_606" style="mask-type:alpha" maskUnits="userSpaceOnUse" x="0" y="0" width="35" height="35">
<rect x="0.5" y="0.5" width="34" height="34" fill="white" stroke="#707070"/>
</mask>
<g mask="url(#mask0_1_606)">
<path d="M12.3929 16.9839C11.9492 16.1929 11.5158 15.4225 11.0838 14.6514C10.0953 12.8884 10.6532 11.1084 12.4742 10.2429C15.9093 8.61119 19.3457 6.98219 22.7849 5.35934C24.4248 4.58483 26.1988 5.43864 26.544 7.15582C26.7702 8.28444 26.2042 9.40279 25.0893 9.97018C23.5006 10.7782 21.9024 11.5684 20.3082 12.3662C19.3765 12.8331 18.4448 13.3 17.4877 13.7798C17.5547 13.8865 17.6053 13.9719 17.6607 14.0533C19.5351 16.7918 21.4116 19.5289 23.2812 22.2701C23.4117 22.4615 23.571 22.5408 23.787 22.6167C24.3715 22.8231 24.9683 23.0316 25.5022 23.3406C26.9152 24.1595 28.3247 24.2306 29.7309 23.396C30.6196 22.8682 31.5458 22.5141 32.5828 22.4834C32.7387 22.4786 32.9069 22.4888 33.0511 22.5415C33.3615 22.6549 33.5098 22.9058 33.5098 23.2312C33.5098 23.5477 33.2842 23.8259 32.9752 23.9004C32.844 23.9319 32.7052 23.9408 32.5699 23.9456C31.8951 23.9695 31.2765 24.1698 30.703 24.5212C28.6761 25.7626 26.6677 25.7366 24.6299 24.5075C23.2839 23.6961 21.8805 23.7022 20.5263 24.5184C18.5056 25.7366 16.5109 25.7523 14.4833 24.5273C13.1114 23.6981 11.6943 23.6981 10.3182 24.5307C8.33235 25.7325 6.35403 25.7591 4.36614 24.5649C3.72835 24.1821 3.05638 23.9586 2.30716 23.938C1.71106 23.9216 1.38089 23.5046 1.52308 23.009C1.62015 22.67 1.90862 22.4239 2.30101 22.4916C2.87044 22.59 3.29768 22.3542 3.75364 22.0841C6.4887 20.4613 9.23265 18.8528 11.9732 17.2395C12.1092 17.1595 12.2432 17.0768 12.3943 16.9852L12.3929 16.9839ZM21.6959 22.5476C21.5934 22.3911 21.5284 22.2858 21.458 22.1839C19.7771 19.7387 18.0954 17.2949 16.4145 14.8497C15.6974 13.8065 15.9243 12.9308 17.0523 12.3669C19.49 11.148 21.9256 9.92506 24.3647 8.70895C24.6819 8.55104 24.945 8.35211 25.0667 8.00621C25.2199 7.56871 25.103 7.09088 24.7557 6.79352C24.3449 6.44147 23.9005 6.43805 23.4227 6.665C19.9555 8.31178 16.4856 9.95104 13.0184 11.5971C12.0579 12.0531 11.7872 12.9349 12.3129 13.866C12.7149 14.5783 13.1243 15.2872 13.529 15.9981C14.121 17.0379 13.9344 17.7686 12.9124 18.3715C10.2997 19.9137 7.68567 21.4518 5.07229 22.9926C5.00052 23.035 4.93626 23.089 4.83919 23.1581C6.38343 24.1623 7.91126 24.2887 9.48216 23.3331C9.75354 23.1683 10.0283 22.9995 10.3223 22.8853C12.0819 22.2038 13.7642 22.3542 15.3754 23.3584C16.6435 24.1486 17.9806 24.2135 19.3013 23.5327C20.0587 23.1423 20.7772 22.685 21.6959 22.5476Z" fill="black"/>
<path d="M27.7635 29.9037C26.5966 29.8948 25.6143 29.5639 24.6839 29.0123C23.2928 28.1879 21.8914 28.22 20.4778 29.0048C19.937 29.3049 19.3655 29.5974 18.7715 29.7451C17.258 30.1211 15.8293 29.8599 14.499 29.013C13.3205 28.2624 12.0648 28.2104 10.7851 28.7477C10.5362 28.8523 10.312 29.0157 10.0741 29.149C8.22433 30.1826 6.36496 30.199 4.53566 29.1312C3.8008 28.7026 3.05568 28.4053 2.19777 28.3998C1.78488 28.3977 1.4841 28.0676 1.48683 27.6772C1.48957 27.2869 1.79445 26.9759 2.20734 26.9629C3.29904 26.9287 4.28342 27.2534 5.19875 27.8406C6.23918 28.5078 7.36779 28.6172 8.53332 28.2549C8.89631 28.1421 9.23469 27.9377 9.56828 27.747C11.4571 26.6648 13.3588 26.6375 15.2243 27.7545C16.7399 28.6616 18.2034 28.6814 19.721 27.7811C21.6023 26.6648 23.5259 26.6477 25.4112 27.7545C26.9815 28.6766 28.497 28.6725 30.033 27.7059C30.8499 27.1919 31.7516 26.9465 32.7195 26.9608C33.1844 26.9677 33.507 27.2575 33.5139 27.6718C33.5207 28.0853 33.2022 28.3984 32.7407 28.4039C31.9696 28.4135 31.2676 28.6295 30.6189 29.0451C29.7254 29.6166 28.7403 29.8893 27.7635 29.9037Z" fill="black"/>
<path d="M27.5904 11.2888C30.5005 11.3346 32.8165 13.6923 32.77 16.5621C32.7235 19.4379 30.3535 21.7444 27.4913 21.7006C24.6284 21.6569 22.3131 19.2691 22.3616 16.4117C22.4101 13.5734 24.7877 11.2444 27.5904 11.2888ZM31.3037 16.4821C31.2955 14.4115 29.6296 12.7483 27.5713 12.7565C25.4665 12.7647 23.8115 14.4381 23.8286 16.5429C23.845 18.6019 25.5205 20.2432 27.5959 20.2336C29.6583 20.2241 31.3119 18.5513 31.3037 16.4821Z" fill="black"/>
</g>
</svg>
