<svg width="35" height="35" viewBox="0 0 35 35" fill="none" xmlns="http://www.w3.org/2000/svg">
<mask id="mask0_1_585" style="mask-type:alpha" maskUnits="userSpaceOnUse" x="0" y="0" width="35" height="35">
<rect x="0.5" y="0.5" width="34" height="34" fill="white" stroke="#707070"/>
</mask>
<g mask="url(#mask0_1_585)">
<path d="M0.0329103 5.49263C0.201074 5.26021 0.393848 5.06949 0.712402 5.1857C1.0248 5.29986 1.06035 5.56304 1.05898 5.85494C1.05283 6.96783 1.05625 8.0814 1.05625 9.21959H2.07959C2.07959 9.07671 2.07959 8.93316 2.07959 8.78961C2.07959 7.78883 2.07822 6.78873 2.08027 5.78795C2.08096 5.39078 2.27373 5.15494 2.5875 5.15289C2.90127 5.15084 3.10156 5.38804 3.10225 5.78111C3.10498 6.91793 3.10293 8.05406 3.10293 9.21754H4.12627C4.12627 9.10406 4.12627 8.98375 4.12627 8.86343C4.12627 7.85172 4.12559 6.84 4.12627 5.82759C4.12627 5.3983 4.30674 5.15904 4.62803 5.15289C4.96025 5.14674 5.14893 5.39351 5.14893 5.84332C5.14961 7.74166 5.13799 9.64068 5.15508 11.539C5.16191 12.3087 5.03066 13.0388 4.63281 13.6944C4.22266 14.3691 4.1085 15.078 4.11328 15.8627C4.14062 19.9896 4.12832 24.1165 4.12422 28.244C4.12285 29.3446 3.15693 30.0856 2.14385 29.7794C1.52041 29.5914 1.07812 29.0199 1.05898 28.3588C1.04736 27.961 1.05557 27.5631 1.05557 27.1653C1.05557 23.1294 1.05762 19.0934 1.04941 15.0568C1.04941 14.851 0.987891 14.635 0.910645 14.4409C0.627637 13.7279 0.326172 13.0224 0.0322266 12.3135C0.0322266 10.0392 0.0322266 7.7649 0.0322266 5.49058L0.0329103 5.49263ZM1.11709 10.2839C1.11709 10.9921 1.02412 11.6874 1.14512 12.3436C1.25107 12.9178 1.57988 13.4558 1.84443 13.9931C2.00439 14.3178 2.08574 14.6371 2.08506 15.0014C2.07686 19.3443 2.07959 23.6879 2.07959 28.0307C2.07959 28.1333 2.07344 28.2365 2.08301 28.3377C2.1124 28.6275 2.33115 28.838 2.5998 28.8216C2.88828 28.8039 3.05713 28.6378 3.09609 28.3527C3.11182 28.2413 3.10225 28.1257 3.10225 28.0123C3.10225 23.8854 3.1166 19.7579 3.08994 15.631C3.08447 14.8456 3.17402 14.1203 3.61221 13.4627C4.26641 12.4817 4.12422 11.3832 4.11602 10.2846L1.11709 10.2839Z" fill="black"/>
<path d="M5.15011 17.4864C5.15968 10.6833 10.7057 5.14615 17.504 5.15162C24.3215 5.15708 29.8716 10.7229 29.847 17.5308C29.8231 24.338 24.2723 29.8656 17.476 29.8492C10.6722 29.8328 5.14054 24.284 5.15011 17.4864ZM17.5006 6.17496C11.2614 6.17359 6.17413 11.2588 6.17345 17.498C6.17277 23.7372 11.258 28.8245 17.4965 28.8251C23.7357 28.8265 28.8223 23.7413 28.8236 17.5014C28.825 11.2609 23.7411 6.17564 17.5006 6.17496Z" fill="black"/>
<path d="M34.9643 17.0714C34.9643 20.7888 34.9657 24.5062 34.9629 28.2236C34.9629 29.1273 34.3463 29.8068 33.5069 29.8457C32.6052 29.8881 31.8963 29.1909 31.895 28.2441C31.8909 25.7886 31.8977 23.3332 31.8868 20.8777C31.8854 20.6507 31.8416 20.3889 31.7241 20.203C31.0118 19.0785 30.8115 17.8706 30.8491 16.5437C30.9222 13.9768 30.8668 11.4058 30.8716 8.83686C30.875 6.91938 32.1171 5.47632 34.0086 5.18237C34.1652 5.15776 34.3272 5.14546 34.4837 5.15845C34.7551 5.181 34.9171 5.34438 34.9568 5.61304C34.9732 5.72446 34.9636 5.83999 34.9636 5.95347C34.9636 9.65923 34.9643 13.3657 34.9643 17.0714ZM33.9409 6.23852C33.8459 6.25698 33.7906 6.26313 33.7379 6.27817C32.6414 6.60014 31.8997 7.5811 31.8963 8.74526C31.8902 11.2684 31.9449 13.7929 31.8731 16.3133C31.8362 17.6258 32.0269 18.8228 32.7337 19.9377C32.8629 20.1415 32.908 20.4299 32.9094 20.6794C32.9217 23.1342 32.9169 25.589 32.9169 28.0438C32.9169 28.5695 33.0755 28.8149 33.4173 28.8224C33.7714 28.8299 33.9403 28.5756 33.9403 28.0315C33.9403 20.9057 33.9403 13.7799 33.9403 6.65415L33.9409 6.23852Z" fill="black"/>
<path d="M17.1828 9.24487C22.2237 9.24829 25.9903 13.2152 25.7455 17.947C25.5022 22.6447 21.3022 26.2165 16.6257 25.7038C12.2343 25.2218 9.00842 21.4258 9.25656 17.0153C9.34748 15.3986 9.88069 13.9309 10.8411 12.6225C11.0893 12.2841 11.3887 12.2007 11.6485 12.3894C11.9069 12.5774 11.913 12.8802 11.6649 13.2289C8.61399 17.5191 10.8145 23.3666 15.9278 24.5574C20.0396 25.5151 24.2102 22.5667 24.6709 18.3756C25.1023 14.4552 22.4896 10.9737 18.6197 10.3584C16.6947 10.0522 14.9174 10.4808 13.3157 11.6026C12.883 11.9054 12.5939 11.9252 12.3915 11.6559C12.1789 11.3729 12.2883 11.0769 12.7244 10.7679C14.1497 9.75893 15.7391 9.2606 17.1828 9.24487Z" fill="black"/>
<path d="M11.2902 17.5034C11.2889 14.0854 14.0711 11.2963 17.4863 11.2922C20.92 11.2875 23.7125 14.0806 23.7063 17.5136C23.7009 20.9289 20.9104 23.7104 17.4925 23.7084C14.0766 23.7063 11.2916 20.92 11.2902 17.5034ZM22.6837 17.5006C22.6837 14.6439 20.3567 12.3156 17.4993 12.3156C14.6419 12.3156 12.3143 14.6425 12.3136 17.4993C12.3136 20.356 14.6412 22.685 17.4973 22.685C20.354 22.685 22.683 20.3574 22.6837 17.5006Z" fill="black"/>
</g>
</svg>
