<svg width="35" height="35" viewBox="0 0 35 35" fill="none" xmlns="http://www.w3.org/2000/svg">
<mask id="mask0_1_615" style="mask-type:alpha" maskUnits="userSpaceOnUse" x="0" y="0" width="35" height="35">
<rect x="0.5" y="0.5" width="34" height="34" fill="white" stroke="#707070"/>
</mask>
<g mask="url(#mask0_1_615)">
<path d="M0.034668 24.1848C0.208984 23.8977 0.474219 23.8389 0.79209 23.8403C2.46348 23.8492 4.13486 23.8492 5.80625 23.8369C5.95186 23.8355 6.14805 23.7637 6.2335 23.655C7.63213 21.8777 9.01709 20.0887 10.4041 18.3018C10.4383 18.2581 10.4677 18.2109 10.547 18.0974C10.3781 18.0974 10.2626 18.0974 10.1464 18.0974C7.78115 18.0974 5.41592 18.0961 3.05137 18.0981C2.51885 18.0981 2.03623 17.9785 1.66504 17.5676C0.92539 16.7501 1.19746 15.4882 2.19619 15.0185C2.34727 14.9474 2.49971 14.7888 2.5626 14.6343C3.11699 13.2719 3.7999 11.98 4.63047 10.7659C4.88408 10.3954 5.13701 10.3181 5.42207 10.5171C5.6873 10.7016 5.69619 10.9628 5.4918 11.3278C4.89434 12.3963 4.30644 13.4709 3.71924 14.5448C3.66728 14.6405 3.64199 14.7506 3.59824 14.8716H32.6257C32.5122 14.6097 32.4199 14.3828 32.3167 14.1606C30.914 11.133 28.9227 8.603 26.0652 6.81813C24.184 5.64304 22.1216 4.97722 19.9211 4.74685C17.2797 4.47067 14.7053 4.7489 12.2286 5.75036C10.4779 6.45788 8.94804 7.5031 7.59863 8.81628C7.34639 9.06169 7.11328 9.32761 6.86308 9.57575C6.5917 9.84577 6.31347 9.8697 6.08584 9.65505C5.84521 9.42878 5.83222 9.15739 6.12002 8.88054C6.84805 8.17985 7.55693 7.45046 8.34717 6.82565C10.2708 5.30534 12.4692 4.36267 14.881 3.92312C15.1312 3.87731 15.2603 3.79118 15.3137 3.51433C15.5639 2.19978 16.7779 1.24069 18.1321 1.25642C19.4904 1.27214 20.6648 2.24284 20.9089 3.57243C20.9492 3.79118 21.0483 3.87321 21.252 3.91218C26.7454 4.95944 30.4621 8.26941 32.9552 13.1263C33.219 13.6404 33.42 14.1866 33.6682 14.7089C33.7235 14.8258 33.8404 14.942 33.9573 14.996C34.6491 15.3118 35.049 15.979 34.9513 16.694C34.8501 17.4337 34.293 17.9716 33.5185 18.0715C33.3729 18.0906 33.2238 18.0947 33.0769 18.0954C31.0527 18.0967 29.0286 18.0961 27.0052 18.0961C26.8705 18.0961 26.7352 18.0961 26.6155 18.0961C26.6627 18.4249 26.7393 18.7243 26.7413 19.0251C26.744 19.5241 26.5185 19.9397 26.1849 20.3068C24.1655 22.5278 22.1482 24.7502 20.1357 26.9773C19.8186 27.3287 19.4378 27.5447 18.9825 27.6568C15.0915 28.6138 11.2025 29.5791 7.30879 30.5259C6.96289 30.6099 6.81455 30.7241 6.84873 31.1021C6.88906 31.5533 6.86377 32.0113 6.85625 32.4659C6.8501 32.8364 6.70039 33.0148 6.33603 33.0592C4.46367 33.2876 2.59062 33.505 0.718259 33.7346C0.401755 33.7736 0.199412 33.6355 0.0353491 33.3942V24.1835L0.034668 24.1848ZM6.85762 29.5606C6.93623 29.5606 6.97178 29.5674 7.00322 29.5599C10.9147 28.5926 14.8276 27.6295 18.7351 26.6458C18.9907 26.5815 19.2566 26.4079 19.4364 26.211C21.4257 24.0399 23.3992 21.8545 25.3762 19.6724C25.437 19.6048 25.5013 19.5391 25.5525 19.4646C25.7604 19.1666 25.774 18.8446 25.6106 18.5315C25.4397 18.2048 25.1328 18.0516 24.7835 18.1261C24.5552 18.1747 24.3139 18.3066 24.1471 18.4714C22.2727 20.3116 20.4092 22.1621 18.5512 24.018C18.3256 24.2436 18.0897 24.3455 17.7691 24.3441C15.4955 24.3345 13.2212 24.3386 10.9469 24.34C10.6912 24.34 10.4396 24.3414 10.2906 24.0789C10.1327 23.8006 10.2797 23.5805 10.4253 23.3577C11.2634 22.0732 12.1056 20.7908 12.9348 19.5008C13.2438 19.0203 13.1645 18.5397 12.7639 18.267C12.3257 17.9689 11.8916 18.0571 11.5279 18.524C10.104 20.354 8.69033 22.1922 7.25137 24.0105C6.96768 24.3694 6.83848 24.7201 6.84668 25.1801C6.87334 26.6341 6.85625 28.0888 6.85625 29.5606H6.85762ZM18.1123 15.9161C13.133 15.9161 8.15371 15.9161 3.17441 15.9161C3.02676 15.9161 2.87568 15.9072 2.73281 15.9352C2.45527 15.9892 2.29531 16.1683 2.28027 16.4548C2.26523 16.7384 2.39512 16.9442 2.66924 17.0208C2.82988 17.0659 3.00557 17.0707 3.17441 17.0707C13.1214 17.0727 23.0684 17.0727 33.016 17.072C33.1295 17.072 33.2443 17.0782 33.3564 17.0645C33.714 17.0228 33.9484 16.7795 33.9382 16.4705C33.9279 16.1519 33.6894 15.9352 33.3229 15.9168C33.2095 15.9113 33.0953 15.9147 32.9818 15.9147C28.0251 15.9147 23.069 15.9147 18.1123 15.9147L18.1123 15.9161ZM1.07852 24.8766V32.658C2.67471 32.4686 4.24766 32.2813 5.80557 32.0961V24.8766L1.07852 24.8766ZM13.1323 23.3153C13.5972 23.3153 13.9882 23.3023 14.3778 23.3201C14.6239 23.3317 14.7982 23.2565 14.9746 23.0801C16.3937 21.6576 17.8231 20.2453 19.2491 18.8296C19.3284 18.7503 19.4036 18.6669 19.4774 18.5896C19.1452 17.9867 18.5389 17.9334 18.0084 18.4577C16.4505 19.9978 14.8967 21.5427 13.3415 23.0863C13.2882 23.1389 13.2396 23.1977 13.1323 23.3153ZM16.216 23.3153C16.6938 23.3153 17.1026 23.3358 17.508 23.3057C17.6796 23.2927 17.8833 23.2162 18.0036 23.0979C19.4563 21.6767 20.8966 20.2432 22.339 18.8118C22.4169 18.7339 22.4894 18.6505 22.5598 18.5753C22.1749 17.9935 21.6103 17.934 21.1105 18.4262C19.5185 19.9965 17.9339 21.5756 16.3473 23.1519C16.3172 23.182 16.2939 23.2189 16.216 23.3153ZM16.7526 18.1241H13.9704C14.3102 18.9362 14.1201 19.6259 13.6512 20.2972C13.0927 21.0964 12.5772 21.9262 12.0447 22.7445C11.9935 22.8231 11.9538 22.9092 11.9087 22.9913C11.9271 23.0049 11.9456 23.0186 11.9641 23.0323C13.5685 21.3876 15.1729 19.7428 16.7526 18.1241ZM16.3541 3.66608H19.8671C19.7126 2.8403 18.9121 2.24626 17.9988 2.28317C17.1874 2.3153 16.4177 2.9654 16.3541 3.66608Z" fill="black"/>
</g>
</svg>
