<svg width="35" height="35" viewBox="0 0 35 35" fill="none" xmlns="http://www.w3.org/2000/svg">
<mask id="mask0_1_666" style="mask-type:alpha" maskUnits="userSpaceOnUse" x="0" y="0" width="35" height="35">
<rect x="0.5" y="0.5" width="34" height="34" fill="white" stroke="#707070"/>
</mask>
<g mask="url(#mask0_1_666)">
<path d="M26.1094 0.0178223C26.7636 0.278955 27.0233 0.780713 27.1799 1.45884C27.7233 3.80903 29.3318 5.07915 31.6062 5.61235C31.8488 5.66909 32.1011 5.68618 32.3444 5.74087C32.9214 5.87075 33.3548 6.32944 33.3521 6.91802C33.3398 9.4644 33.3035 12.0108 33.2652 14.5572C33.2598 14.9345 33.0301 15.1362 32.7163 15.1109C32.4066 15.0863 32.2604 14.8457 32.2672 14.4676C32.3109 12.0238 32.3444 9.58062 32.3827 7.13677C32.3868 6.86538 32.2727 6.72114 31.9897 6.6856C30.7735 6.53179 29.6497 6.12778 28.6558 5.39976C27.3159 4.41743 26.4443 3.12954 26.1641 1.47524C26.1087 1.14985 25.9679 1.01314 25.6233 1.01382C20.2093 1.02134 14.7945 1.02065 9.38047 1.01519C9.07696 1.01519 8.92862 1.12319 8.86709 1.42534C8.28536 4.29028 6.44034 5.89263 3.68477 6.57144C3.45372 6.62817 3.21583 6.66167 2.97999 6.6938C2.74483 6.72593 2.63819 6.86333 2.64092 7.08618C2.67374 9.53003 2.70381 11.9739 2.7503 14.4177C2.7585 14.8409 2.63545 15.1041 2.31485 15.1423C1.99971 15.1799 1.77208 14.942 1.75157 14.5216C1.71192 13.6931 1.66475 12.8639 1.65723 12.034C1.64219 10.4303 1.65176 8.82661 1.65381 7.22358C1.65518 6.26382 2.07081 5.8106 3.01212 5.67798C4.66094 5.44487 6.02745 4.70864 7.02481 3.34966C7.44044 2.78296 7.75147 2.15542 7.84717 1.46089C7.94356 0.763623 8.25801 0.278272 8.91221 0.0178225H26.1114L26.1094 0.0178223Z" fill="black"/>
<path d="M17.5036 2.32559C19.5052 2.32559 21.5067 2.33926 23.5076 2.31875C24.3286 2.31055 24.8755 2.64073 25.246 3.37627C26.1989 5.26573 27.6734 6.63223 29.6176 7.44639C30.5562 7.83946 30.9834 8.44649 30.941 9.45889C30.8781 10.9799 30.9287 12.5077 30.8145 14.0239C30.5944 16.9538 29.6955 19.6957 28.2709 22.2592C25.9344 26.4646 22.5492 29.5935 18.328 31.8521C17.7969 32.1364 17.2657 32.1576 16.7318 31.8732C12.553 29.6434 9.18154 26.5645 6.83681 22.4191C5.01504 19.1987 4.10244 15.7309 4.08535 12.0299C4.08125 11.0975 4.09082 10.165 4.08261 9.2333C4.07578 8.41162 4.4415 7.86065 5.20576 7.54346C7.27021 6.6876 8.82949 5.27735 9.833 3.26963C10.155 2.62569 10.6738 2.3208 11.3964 2.32354C13.4321 2.33106 15.4679 2.32559 17.5036 2.32559ZM17.5262 3.31065C15.5014 3.31065 13.4772 3.31338 11.4524 3.30791C11.1134 3.30723 10.8693 3.41045 10.7094 3.73174C9.59785 5.96573 7.85263 7.52022 5.56191 8.4752C5.2208 8.61739 5.07724 8.83955 5.08271 9.20733C5.0957 10.219 5.08066 11.2314 5.09023 12.2439C5.12099 15.6181 5.96728 18.7831 7.59423 21.7328C9.8289 25.7838 13.0855 28.7882 17.1393 30.9661C17.44 31.1274 17.6957 31.0687 17.9732 30.9189C21.0802 29.2428 23.74 27.0416 25.8469 24.1985C28.0433 21.2338 29.4344 17.9313 29.7898 14.2488C29.9443 12.6465 29.8978 11.025 29.9313 9.41172C29.9464 8.70147 29.9102 8.68028 29.2683 8.39727C27.1129 7.44707 25.4463 5.96162 24.3751 3.85069C24.1693 3.44531 23.9034 3.30108 23.4639 3.30449C21.4849 3.31953 19.5052 3.31065 17.5262 3.31065Z" fill="black"/>
<path d="M17.4705 34.9823C17.2914 34.9276 17.085 34.8928 16.9059 34.8046C13.8974 33.326 11.109 31.5315 8.74311 29.1273C5.53842 25.87 3.32358 22.059 2.26127 17.5992C2.22504 17.4481 2.16899 17.2499 2.23393 17.1385C2.32348 16.9853 2.50531 16.8254 2.67211 16.7919C2.93666 16.7386 3.10824 16.9238 3.1807 17.1884C3.36664 17.8672 3.52592 18.5549 3.74945 19.2207C5.47279 24.349 8.64672 28.3891 13.0812 31.4345C14.406 32.3443 15.8593 33.0683 17.2627 33.8605C17.3865 33.9303 17.6073 33.9337 17.7365 33.8722C22.0698 31.7913 25.7537 28.9284 28.4696 24.9096C30.0179 22.6188 31.1328 20.1347 31.7768 17.4434C31.787 17.3989 31.798 17.3552 31.8096 17.3114C31.9149 16.919 32.15 16.7365 32.4494 16.8151C32.7475 16.8937 32.8671 17.1665 32.7728 17.5644C32.0947 20.4252 30.925 23.07 29.2694 25.4981C26.7025 29.2634 23.331 32.1078 19.2971 34.1921C18.863 34.4163 18.433 34.648 17.9914 34.8572C17.8417 34.9276 17.6647 34.9379 17.4705 34.9823Z" fill="black"/>
<path d="M22.387 12.4319C22.6474 12.4319 22.8518 12.4319 23.0555 12.4319C24.1486 12.4353 24.7878 13.0724 24.7912 14.1737C24.7953 15.629 24.7926 17.0844 24.7926 18.5405C24.7926 19.3594 24.7973 20.1777 24.7912 20.9966C24.7837 22.0507 24.1404 22.707 23.0897 22.7083C19.3819 22.7145 15.6741 22.7138 11.9663 22.7083C10.9122 22.707 10.2737 22.0514 10.273 20.9952C10.271 18.7093 10.271 16.4241 10.273 14.1381C10.2737 13.0799 10.9163 12.436 11.9683 12.4312C12.1837 12.4305 12.3983 12.4312 12.667 12.4312C12.667 12.2938 12.6649 12.1748 12.667 12.0552C12.6854 11.1583 12.6362 10.2533 12.736 9.36526C12.9917 7.09983 15.0151 5.276 17.271 5.20286C19.7196 5.12356 21.8367 6.74436 22.2776 9.0597C22.3576 9.48079 22.3713 9.91761 22.3822 10.3476C22.3986 11.0271 22.387 11.7086 22.387 12.4319ZM17.5362 21.7171C19.3546 21.7171 21.1736 21.7171 22.992 21.7171C23.6017 21.7171 23.7904 21.5305 23.7904 20.9283C23.7911 18.6895 23.7911 16.4507 23.7904 14.2119C23.7904 13.6063 23.6065 13.4224 22.9947 13.4224C19.3464 13.4217 15.698 13.421 12.049 13.4224C11.4577 13.4224 11.2663 13.609 11.2663 14.1928C11.2642 16.4432 11.2642 18.6929 11.2663 20.9433C11.2663 21.5271 11.4611 21.7164 12.0469 21.7171C13.8769 21.7185 15.7062 21.7171 17.5362 21.7171ZM21.3411 12.412C21.3411 11.4078 21.4286 10.4344 21.3226 9.48216C21.1189 7.64944 19.5897 6.31849 17.7023 6.20296C15.9434 6.09563 14.2092 7.27073 13.8448 9.01321C13.6158 10.107 13.6753 11.2602 13.6035 12.4114L21.3411 12.412Z" fill="black"/>
<path d="M17.0322 18.8564C17.0322 18.7545 17.0247 18.6513 17.0336 18.5501C17.0595 18.2664 16.996 18.0634 16.7417 17.8604C16.2365 17.4577 16.242 16.6894 16.6918 16.2232C17.1491 15.7487 17.9092 15.7487 18.3672 16.2238C18.8123 16.6853 18.8157 17.4605 18.3146 17.8631C18.0596 18.0682 18.0159 18.2774 18.0275 18.5583C18.0398 18.8529 18.0384 19.1489 18.0268 19.4436C18.0125 19.7867 17.7937 20.0096 17.5073 19.9952C17.227 19.9809 17.0465 19.7669 17.0329 19.4354C17.0329 19.4237 17.0329 19.4128 17.0329 19.4012C17.0329 19.2194 17.0322 19.0382 17.0322 18.8564Z" fill="black"/>
</g>
</svg>
