<svg width="35" height="35" viewBox="0 0 35 35" fill="none" xmlns="http://www.w3.org/2000/svg">
<mask id="mask0_1_596" style="mask-type:alpha" maskUnits="userSpaceOnUse" x="0" y="0" width="35" height="35">
<rect x="0.5" y="0.5" width="34" height="34" fill="white" stroke="#707070"/>
</mask>
<g mask="url(#mask0_1_596)">
<path d="M34.9656 13.1366C34.8098 13.5345 34.576 13.8551 34.131 13.957C33.66 14.065 33.2949 13.8886 32.9757 13.5461C31.1813 11.6211 29.0977 10.0837 26.727 8.94417C23.2071 7.25296 19.4986 6.54544 15.6069 6.91731C10.253 7.42864 5.72628 9.66057 2.01915 13.5536C1.6835 13.9064 1.30001 14.0725 0.826275 13.9467C0.420221 13.8387 0.166607 13.5564 0.0668027 13.1483C-0.0343692 12.7354 0.107135 12.3929 0.389459 12.0908C2.44571 9.88958 4.8294 8.13753 7.55626 6.85579C11.2217 5.13313 15.0833 4.39895 19.1158 4.697C25.2278 5.14886 30.3897 7.64124 34.6026 12.0914C34.7544 12.2521 34.8467 12.4688 34.9663 12.6588L34.9656 13.1366Z" fill="black"/>
<path d="M17.9191 11.6294C22.2982 11.734 26.3656 13.4936 29.6455 17.0339C29.9586 17.3723 30.085 17.7489 29.951 18.1892C29.707 18.989 28.7329 19.192 28.1081 18.5932C27.4689 17.9813 26.8523 17.336 26.1578 16.7926C23.945 15.0617 21.4218 14.0732 18.6157 13.8812C14.0896 13.5715 10.2642 15.0979 7.10944 18.3484C6.87497 18.5904 6.57009 18.816 6.25632 18.9158C5.81813 19.0546 5.35739 18.7887 5.13522 18.3949C4.9069 17.9916 4.95475 17.4967 5.27878 17.1282C6.32878 15.9326 7.53805 14.9236 8.89157 14.0903C11.5268 12.4682 14.3972 11.6602 17.9191 11.6294Z" fill="black"/>
<path d="M17.5149 18.6416C20.427 18.697 22.8367 19.8208 24.7234 22.0486C25.1684 22.5743 25.1322 23.2606 24.653 23.6578C24.1587 24.0673 23.5175 23.9914 23.0582 23.4548C21.4948 21.6289 19.5178 20.7272 17.1123 20.8441C15.0676 20.9433 13.3853 21.8135 12.0332 23.344C11.8711 23.5272 11.6838 23.7139 11.4699 23.8212C11.0269 24.0427 10.4889 23.8827 10.1875 23.4924C9.87027 23.0809 9.87915 22.5388 10.2271 22.1102C11.1055 21.0253 12.1726 20.1735 13.4304 19.5692C14.7183 18.9506 16.0787 18.632 17.5149 18.6416Z" fill="black"/>
<path d="M17.5095 30.368C16.2168 30.3762 15.1409 29.3104 15.1333 28.0137C15.1258 26.7237 16.197 25.6443 17.4904 25.6375C18.7824 25.6306 19.8563 26.6964 19.8659 27.9945C19.8761 29.2845 18.809 30.3598 17.5095 30.368Z" fill="black"/>
</g>
</svg>
