<svg width="168" height="46" viewBox="0 0 168 46" fill="none" xmlns="http://www.w3.org/2000/svg">
<g clip-path="url(#clip0_1_470)">
<path d="M94.1775 9.33548V12.359H98.1923V14.2677H94.1775V17.4635H98.697V19.4291H91.7873V7.36987H98.697V9.33548H94.1775Z" fill="white"/>
<path d="M109.305 21.5617L107.494 19.3699C105.941 19.7576 104.302 19.5409 102.9 18.7628C101.98 18.2463 101.214 17.49 100.68 16.5725C100.141 15.6033 99.8584 14.51 99.8584 13.398C99.8584 12.286 100.141 11.1927 100.68 10.2234C101.209 9.30087 101.977 8.54277 102.902 8.03166C103.838 7.50276 104.894 7.22919 105.965 7.23782C107.043 7.22913 108.105 7.50259 109.047 8.03166C109.963 8.54894 110.724 9.306 111.251 10.2234C111.797 11.1887 112.074 12.2858 112.054 13.398C112.065 14.415 111.834 15.4198 111.379 16.3267C110.947 17.1823 110.32 17.921 109.549 18.4812L112.275 21.5807L109.305 21.5617ZM102.788 15.4956C103.067 16.083 103.517 16.5708 104.076 16.8943C104.657 17.2265 105.314 17.396 105.981 17.3854C106.642 17.3984 107.294 17.2287 107.867 16.8943C108.417 16.5643 108.859 16.0779 109.137 15.4956C109.453 14.8363 109.613 14.1116 109.604 13.379C109.622 12.6454 109.462 11.9186 109.137 11.2624C108.858 10.6857 108.416 10.2056 107.867 9.88266C107.294 9.55059 106.642 9.38098 105.981 9.39164C105.313 9.37427 104.654 9.54422 104.076 9.88266C103.526 10.2095 103.079 10.6881 102.788 11.2624C102.459 11.9171 102.299 12.645 102.321 13.379C102.3 14.1127 102.46 14.8401 102.787 15.4956H102.788Z" fill="white"/>
<path d="M115.803 7.38885V14.8528C115.779 15.1919 115.823 15.5323 115.932 15.8537C116.041 16.1751 116.214 16.471 116.438 16.7236C116.674 16.949 116.953 17.1225 117.259 17.2331C117.564 17.3438 117.889 17.3891 118.212 17.3664C118.538 17.3873 118.865 17.3412 119.173 17.2307C119.481 17.1202 119.764 16.9477 120.005 16.7236C120.451 16.2086 120.679 15.5366 120.64 14.8528V7.38885H123.049V14.8156C123.076 15.7235 122.849 16.6207 122.396 17.4043C121.978 18.097 121.367 18.6493 120.64 18.992C119.872 19.3472 119.037 19.5285 118.193 19.5232C117.36 19.5378 116.536 19.3559 115.784 18.992C115.072 18.642 114.475 18.0905 114.066 17.4043C113.627 16.6155 113.407 15.7208 113.431 14.8156V7.38885H115.803Z" fill="white"/>
<path d="M132.237 17.1395H127.493L126.709 19.4261H124.207L128.482 7.36987H131.264L135.539 19.4261H133.019L132.234 17.1395H132.237ZM131.583 15.2118L129.865 10.1665L128.128 15.2118H131.583Z" fill="white"/>
<path d="M144.824 7.38885V9.33548H141.65V19.4291H139.259V9.33548H136.085V7.38885H144.824Z" fill="white"/>
<path d="M148.615 18.7651C147.696 18.2479 146.929 17.4908 146.396 16.5725C145.858 15.6033 145.575 14.51 145.575 13.398C145.575 12.286 145.858 11.1927 146.396 10.2234C146.925 9.30082 147.694 8.54271 148.619 8.03166C149.554 7.50273 150.61 7.22916 151.682 7.23782C152.759 7.22913 153.821 7.50259 154.763 8.03166C155.679 8.54891 156.44 9.30598 156.967 10.2234C157.513 11.1887 157.791 12.2858 157.77 13.398C157.782 14.5091 157.505 15.6038 156.967 16.5725C156.445 17.4941 155.683 18.2524 154.763 18.7643C153.828 19.2932 152.772 19.5668 151.7 19.5581C150.623 19.5668 149.561 19.2933 148.619 18.7643L148.615 18.7651ZM153.583 16.9133C154.132 16.5833 154.574 16.0969 154.853 15.5146C155.169 14.8554 155.329 14.1307 155.32 13.398C155.338 12.6644 155.177 11.9375 154.853 11.2814C154.573 10.7046 154.131 10.2245 153.583 9.90164C153.009 9.56956 152.357 9.39995 151.697 9.41062C151.029 9.39324 150.37 9.56319 149.791 9.90164C149.241 10.2284 148.794 10.707 148.503 11.2814C148.174 11.936 148.013 12.6639 148.036 13.398C148.016 14.1318 148.176 14.8592 148.503 15.5146C148.783 16.102 149.232 16.5897 149.791 16.9133C150.372 17.2455 151.03 17.415 151.697 17.4043C152.357 17.415 153.009 17.2453 153.583 16.9133Z" fill="white"/>
<path d="M165.273 19.4261L162.64 14.7398H161.519V19.4261H159.129V7.38885H163.592C164.403 7.36955 165.208 7.53748 165.945 7.87987C166.55 8.16334 167.058 8.62415 167.402 9.20267C167.727 9.77048 167.895 10.4169 167.887 11.0734C167.899 11.8824 167.634 12.6709 167.137 13.3048C166.64 13.9386 165.942 14.3789 165.161 14.5508L167.999 19.4261H165.273ZM161.523 12.9252H163.521C163.783 12.9481 164.046 12.9182 164.296 12.8371C164.546 12.7561 164.778 12.6256 164.978 12.4531C165.143 12.2777 165.272 12.0698 165.355 11.8424C165.438 11.6149 165.475 11.3726 165.463 11.1303C165.481 10.8931 165.447 10.6547 165.363 10.4325C165.28 10.2102 165.148 10.0097 164.978 9.84547C164.566 9.51377 164.046 9.35119 163.521 9.39012H161.523V12.929V12.9252Z" fill="white"/>
<path d="M93.5055 32.9C93.8164 32.3649 94.2607 31.9218 94.794 31.6151C95.3371 31.3125 95.9478 31.1557 96.5678 31.1598C97.2601 31.1473 97.9411 31.3375 98.529 31.7077C99.0982 32.0765 99.5365 32.6194 99.78 33.2574H98.4203C98.259 32.9091 97.9976 32.6182 97.6703 32.4226C97.3332 32.2358 96.9526 32.1443 96.5685 32.1577C96.1368 32.1516 95.7114 32.2625 95.3363 32.4788C94.9753 32.6939 94.6835 33.0102 94.4963 33.3895C94.2994 33.8154 94.1974 34.28 94.1974 34.7502C94.1974 35.2205 94.2994 35.685 94.4963 36.111C94.6835 36.4902 94.9752 36.8066 95.3363 37.0217C95.7114 37.238 96.1368 37.3488 96.5685 37.3427C96.9516 37.3469 97.33 37.256 97.6703 37.0778C98.0017 36.8874 98.2644 36.5949 98.4203 36.243H99.7838C99.5518 36.8878 99.1109 37.4341 98.5327 37.7927C97.9687 38.134 97.3271 38.3221 96.6701 38.3387C96.0131 38.3553 95.363 38.1999 94.7828 37.8876C94.2455 37.5863 93.7998 37.142 93.4943 36.6027C93.1849 36.0351 93.0242 35.3968 93.0275 34.7485C93.0307 34.1002 93.1979 33.4636 93.513 32.8992L93.5055 32.9Z" fill="white"/>
<path d="M105.869 35.9235H101.669C101.684 36.3331 101.858 36.72 102.154 37.0004C102.299 37.1358 102.47 37.2406 102.656 37.3087C102.842 37.3769 103.039 37.407 103.237 37.3973C103.504 37.4163 103.771 37.3522 104.001 37.2138C104.231 37.0753 104.414 36.869 104.525 36.6225H105.758C105.595 37.1238 105.28 37.5603 104.858 37.8694C104.383 38.2077 103.813 38.3802 103.233 38.3604C102.737 38.3695 102.247 38.2457 101.814 38.0014C101.403 37.768 101.066 37.4204 100.843 36.9997C100.613 36.5303 100.491 36.014 100.488 35.4901C100.485 34.9661 100.6 34.4483 100.824 33.9761C101.042 33.5514 101.38 33.2025 101.795 32.9743C102.237 32.7342 102.732 32.6107 103.233 32.6154C103.715 32.6044 104.191 32.7216 104.615 32.9554C105.019 33.1752 105.35 33.5104 105.567 33.9192C105.798 34.361 105.914 34.8553 105.903 35.3551C105.91 35.5449 105.898 35.7349 105.866 35.922L105.869 35.9235ZM104.729 34.9786C104.734 34.7853 104.697 34.5932 104.619 34.4166C104.541 34.2399 104.425 34.0832 104.279 33.9579C103.979 33.6973 103.592 33.5617 103.196 33.5784C102.825 33.5741 102.466 33.7093 102.188 33.9579C101.899 34.2216 101.719 34.5862 101.684 34.9786H104.729Z" fill="white"/>
<path d="M110.724 32.881C111.065 33.0656 111.345 33.3484 111.527 33.6938C111.722 34.0927 111.819 34.5337 111.808 34.9787V38.267H110.684V35.1676C110.704 34.7497 110.57 34.339 110.309 34.0148C110.181 33.8761 110.024 33.7684 109.849 33.6997C109.674 33.631 109.487 33.603 109.3 33.6179C109.113 33.6074 108.927 33.6374 108.753 33.7059C108.579 33.7744 108.421 33.8797 108.291 34.0148C108.024 34.3357 107.889 34.7488 107.916 35.1676V38.267H106.784V32.711H107.923V33.3538C108.117 33.1256 108.36 32.9441 108.632 32.8226C108.92 32.6931 109.232 32.6287 109.547 32.6336C109.954 32.6121 110.359 32.6968 110.724 32.8795V32.881Z" fill="white"/>
<path d="M114.347 33.6559V36.7386C114.341 36.8208 114.351 36.9033 114.377 36.9815C114.403 37.0596 114.444 37.1319 114.497 37.1939C114.637 37.2983 114.81 37.3455 114.983 37.326H115.673V38.2898H114.773C114.351 38.3192 113.932 38.1916 113.597 37.9308C113.448 37.7775 113.334 37.5932 113.263 37.3909C113.192 37.1885 113.166 36.9729 113.186 36.7591V33.6786H112.536V32.7338H113.189V31.3502H114.329V32.73H115.673V33.6748L114.347 33.6559Z" fill="white"/>
<path d="M121.481 35.9235H117.297C117.313 36.3331 117.487 36.72 117.782 37.0004C117.928 37.1358 118.099 37.2406 118.284 37.3087C118.47 37.3769 118.668 37.407 118.865 37.3973C119.132 37.4163 119.399 37.3522 119.629 37.2138C119.859 37.0753 120.043 36.869 120.154 36.6225H121.386C121.224 37.1238 120.909 37.5603 120.486 37.8694C120.012 38.2077 119.441 38.3801 118.862 38.3604C118.366 38.3696 117.876 38.2457 117.443 38.0014C117.031 37.768 116.694 37.4204 116.471 36.9997C116.241 36.5303 116.12 36.014 116.116 35.4901C116.113 34.9661 116.228 34.4483 116.453 33.9761C116.67 33.5514 117.008 33.2025 117.424 32.9743C117.866 32.7342 118.36 32.6107 118.862 32.6154C119.344 32.6043 119.82 32.7215 120.244 32.9554C120.648 33.1752 120.979 33.5104 121.196 33.9192C121.427 34.361 121.543 34.8553 121.532 35.3551C121.534 35.5456 121.515 35.7357 121.476 35.922L121.481 35.9235ZM120.341 34.9786C120.346 34.7853 120.309 34.5932 120.231 34.4166C120.153 34.2399 120.037 34.0832 119.891 33.9579C119.591 33.6973 119.204 33.5617 118.808 33.5784C118.437 33.5739 118.078 33.7091 117.8 33.9579C117.51 34.2216 117.33 34.5862 117.296 34.9786H120.341Z" fill="white"/>
<path d="M124.208 32.8446C124.513 32.6854 124.854 32.6071 125.197 32.6169V33.8076H124.918C124.736 33.7934 124.553 33.8161 124.379 33.8745C124.206 33.9329 124.046 34.0258 123.909 34.1476C123.649 34.4858 123.529 34.9125 123.573 35.3384V38.2678H122.433V32.7118H123.572V33.5276C123.711 33.2404 123.933 33.0024 124.208 32.8446Z" fill="white"/>
<path d="M129.325 38.0052C128.912 37.7672 128.57 37.4211 128.335 37.0034C128.089 36.5392 127.967 36.0182 127.98 35.4917C127.975 34.9636 128.104 34.4432 128.355 33.9799C128.587 33.553 128.938 33.2046 129.364 32.9781C129.8 32.7425 130.288 32.6192 130.783 32.6192C131.279 32.6077 131.769 32.7317 132.202 32.9781C132.62 33.2155 132.968 33.5613 133.21 33.9799C133.463 34.4423 133.592 34.9633 133.585 35.4917C133.59 36.0197 133.461 36.5402 133.21 37.0034C132.967 37.4326 132.612 37.7857 132.184 38.0242C131.744 38.2685 131.248 38.3923 130.746 38.3832C130.248 38.3854 129.759 38.2545 129.327 38.0037L129.325 38.0052ZM131.547 37.1552C131.81 37.0059 132.024 36.7826 132.163 36.5124C132.32 36.1962 132.403 35.8479 132.406 35.4943C132.409 35.1406 132.333 34.7908 132.182 34.4717C132.047 34.2028 131.831 33.9843 131.566 33.8479C131.316 33.7015 131.03 33.6294 130.741 33.6399C130.46 33.6392 130.183 33.7107 129.937 33.8479C129.689 34.001 129.482 34.2157 129.337 34.4717C129.18 34.7879 129.103 35.1386 129.113 35.4924C129.079 35.9941 129.24 36.4893 129.562 36.8722C129.708 37.0302 129.884 37.1555 130.081 37.2401C130.277 37.3247 130.488 37.3666 130.702 37.3632C130.995 37.3661 131.283 37.2946 131.542 37.1552H131.547Z" fill="white"/>
<path d="M136.776 33.6558H135.749V38.2853H134.609V33.6558H133.956V32.711H134.609V32.3141C134.585 32.0577 134.618 31.7991 134.705 31.5572C134.792 31.3152 134.932 31.096 135.113 30.9154C135.573 30.5807 136.137 30.4262 136.701 30.4805V31.4444C136.444 31.4252 136.189 31.4915 135.973 31.6333C135.892 31.7258 135.833 31.8346 135.797 31.9524C135.762 32.0702 135.752 32.1943 135.767 32.3164V32.7133H136.795V33.6581L136.776 33.6558Z" fill="white"/>
<path d="M144.377 31.2561V32.201H142.528V38.2671H141.389V32.201H139.54V31.2561H144.377Z" fill="white"/>
<path d="M147.084 32.8446C147.39 32.6854 147.73 32.6071 148.074 32.6169V33.8076H147.794C147.612 33.7935 147.429 33.8163 147.256 33.8747C147.083 33.9331 146.923 34.0259 146.786 34.1476C146.527 34.4858 146.406 34.9125 146.45 35.3384V38.2678H145.31V32.7118H146.45V33.5276C146.589 33.2404 146.81 33.0024 147.085 32.8446H147.084Z" fill="white"/>
<path d="M148.84 33.9776C149.049 33.5593 149.373 33.2114 149.774 32.9759C150.171 32.7431 150.622 32.6194 151.081 32.6169C151.477 32.6035 151.869 32.6948 152.22 32.8817C152.521 33.0335 152.783 33.2534 152.986 33.5246V32.7117H154.125V38.2678H152.986V37.433C152.782 37.7154 152.513 37.9427 152.201 38.0948C151.848 38.273 151.457 38.3638 151.062 38.3596C150.608 38.3662 150.161 38.2417 149.774 38.0007C149.376 37.7528 149.053 37.3999 148.84 36.9799C148.611 36.5169 148.495 36.0048 148.504 35.4871C148.495 34.9633 148.611 34.4451 148.84 33.9754V33.9776ZM152.762 34.4876C152.621 34.2258 152.413 34.0071 152.16 33.8542C151.907 33.7014 151.618 33.62 151.324 33.6187C151.036 33.6198 150.753 33.6911 150.499 33.8266C150.24 33.9813 150.027 34.2033 149.882 34.4694C149.719 34.7772 149.635 35.1218 149.639 35.4712C149.626 35.8215 149.71 36.1686 149.882 36.473C150.027 36.7445 150.239 36.9728 150.499 37.1347C150.742 37.2819 151.019 37.3605 151.302 37.3624C151.592 37.3612 151.877 37.2827 152.127 37.1347C152.39 36.9855 152.604 36.7622 152.744 36.4919C152.888 36.1789 152.964 35.8381 152.968 35.4926C152.971 35.1471 152.901 34.8049 152.762 34.4891L152.762 34.4876Z" fill="white"/>
<path d="M157.523 37.2463L159.074 32.711H160.291L158.199 38.267H156.836L154.741 32.711H155.954L157.523 37.2463Z" fill="white"/>
<path d="M165.89 35.9235H161.69C161.706 36.3331 161.88 36.72 162.176 37.0004C162.321 37.1358 162.492 37.2406 162.678 37.3087C162.864 37.3769 163.061 37.407 163.259 37.3973C163.526 37.4163 163.792 37.3522 164.022 37.2138C164.253 37.0753 164.436 36.869 164.547 36.6225H165.779C165.617 37.1238 165.302 37.5603 164.879 37.8694C164.405 38.2077 163.835 38.3801 163.255 38.3604C162.759 38.3695 162.269 38.2457 161.836 38.0014C161.424 37.768 161.087 37.4204 160.865 36.9997C160.634 36.5303 160.513 36.014 160.51 35.4901C160.506 34.9661 160.621 34.4483 160.846 33.9761C161.063 33.5515 161.402 33.2025 161.817 32.9743C162.259 32.7342 162.753 32.6108 163.255 32.6154C163.737 32.6043 164.214 32.7215 164.637 32.9554C165.041 33.1752 165.372 33.5104 165.59 33.9192C165.821 34.361 165.936 34.8553 165.926 35.3551C165.942 35.5449 165.93 35.7362 165.888 35.922L165.89 35.9235ZM164.751 34.9786C164.756 34.7852 164.719 34.5931 164.641 34.4164C164.563 34.2397 164.447 34.083 164.301 33.9579C164.001 33.6972 163.613 33.5616 163.218 33.5784C162.847 33.5739 162.487 33.7091 162.209 33.9579C161.92 34.2216 161.74 34.5862 161.705 34.9786H164.751Z" fill="white"/>
<path d="M167.945 30.8023V38.2663H166.805V30.8023H167.945Z" fill="white"/>
<path d="M75.9135 0H73.1497V45.92H75.9135V0Z" fill="white"/>
<path d="M35.2958 8.48473L26.313 18.5381C25.3327 17.6201 24.0442 17.1133 22.7085 17.1205C21.5052 17.1235 20.3381 17.5372 19.396 18.2947C18.4539 19.0522 17.7918 20.1091 17.517 21.2945H10.5143C10.2207 20.0046 9.46811 18.8692 8.40013 18.1048C7.33214 17.3404 6.02347 17.0005 4.7237 17.15C3.42393 17.2995 2.22401 17.9279 1.35282 18.9154C0.481624 19.9028 0.000106812 21.1802 0.000106812 22.5039C0.000106812 23.8276 0.481624 25.105 1.35282 26.0924C2.22401 27.0799 3.42393 27.7082 4.7237 27.8577C6.02347 28.0072 7.33214 27.6674 8.40013 26.903C9.46811 26.1386 10.2207 25.0032 10.5143 23.7132H17.517C17.8105 25.0033 18.5631 26.1389 19.6311 26.9034C20.6992 27.6678 22.008 28.0077 23.3079 27.8582C24.6077 27.7086 25.8077 27.0801 26.6789 26.0925C27.5501 25.1049 28.0315 23.8273 28.0313 22.5035C28.0308 21.8505 27.9105 21.2033 27.6765 20.5948L36.9015 10.2735C37.5885 10.7544 38.3776 11.065 39.2051 11.1802C40.0326 11.2954 40.8753 11.212 41.6651 10.9368C42.4548 10.6615 43.1695 10.2022 43.7514 9.59574C44.3333 8.98932 44.766 8.25289 45.0147 7.44595C45.2633 6.63902 45.3208 5.78422 45.1826 4.95063C45.0444 4.11704 44.7143 3.32804 44.2191 2.64739C43.7238 1.96675 43.0773 1.41354 42.3317 1.03248C41.5861 0.651424 40.7623 0.453202 39.927 0.453834C38.7237 0.456841 37.5566 0.870547 36.6145 1.62803C35.6724 2.38551 35.0103 3.44246 34.7355 4.6279H27.882C27.6123 3.44152 26.9529 2.38276 26.0117 1.62456C25.0705 0.866365 23.9029 0.45355 22.6999 0.45355C21.4968 0.45355 20.3293 0.866365 19.3881 1.62456C18.4468 2.38276 17.7875 3.44152 17.5178 4.6279H10.5143C10.2207 3.33797 9.46811 2.20252 8.40013 1.43813C7.33214 0.673736 6.02347 0.333878 4.7237 0.483378C3.42393 0.632878 2.22401 1.26127 1.35282 2.24871C0.481624 3.23615 0.000106812 4.51354 0.000106812 5.83724C0.000106812 7.16094 0.481624 8.43832 1.35282 9.42576C2.22401 10.4132 3.42393 11.0416 4.7237 11.1911C6.02347 11.3406 7.33214 11.0007 8.40013 10.2363C9.46811 9.47195 10.2207 8.3365 10.5143 7.04658H17.517C17.7886 8.23391 18.4497 9.29312 19.3925 10.0515C20.3352 10.8099 21.5041 11.2228 22.7085 11.2228C23.9129 11.2228 25.0818 10.8099 26.0246 10.0515C26.9673 9.29312 27.6284 8.23391 27.9 7.04658H34.7535C34.8668 7.54929 35.0493 8.03341 35.2958 8.48473ZM5.32501 25.4739C4.74516 25.4739 4.17834 25.2999 3.69622 24.974C3.21409 24.648 2.83832 24.1847 2.61643 23.6426C2.39453 23.1005 2.33647 22.504 2.44959 21.9285C2.56271 21.3531 2.84194 20.8245 3.25195 20.4096C3.66196 19.9947 4.18435 19.7122 4.75305 19.5977C5.32176 19.4832 5.91123 19.542 6.44694 19.7665C6.98265 19.991 7.44053 20.3713 7.76267 20.8591C8.08482 21.347 8.25676 21.9206 8.25676 22.5073C8.25537 23.2937 7.94605 24.0474 7.39654 24.6035C6.84703 25.1595 6.10213 25.4725 5.32501 25.4739ZM5.32501 8.82549C4.74516 8.82549 4.17834 8.65149 3.69622 8.32552C3.21409 7.99954 2.83832 7.53622 2.61643 6.99414C2.39453 6.45206 2.33647 5.85557 2.44959 5.28011C2.56271 4.70464 2.84194 4.17604 3.25195 3.76115C3.66196 3.34626 4.18435 3.06372 4.75305 2.94925C5.32176 2.83478 5.91123 2.89353 6.44694 3.11807C6.98265 3.3426 7.44053 3.72284 7.76267 4.2107C8.08482 4.69856 8.25676 5.27212 8.25676 5.85887C8.25537 6.64523 7.94605 7.39899 7.39654 7.95503C6.84703 8.51108 6.10213 8.82408 5.32501 8.82549ZM22.7115 8.82549C22.1317 8.82549 21.5648 8.65149 21.0827 8.32552C20.6006 7.99954 20.2248 7.53622 20.0029 6.99414C19.781 6.45206 19.723 5.85557 19.8361 5.28011C19.9492 4.70464 20.2284 4.17604 20.6384 3.76115C21.0485 3.34626 21.5709 3.06372 22.1396 2.94925C22.7083 2.83478 23.2977 2.89353 23.8334 3.11807C24.3692 3.3426 24.827 3.72284 25.1492 4.2107C25.4713 4.69856 25.6433 5.27212 25.6433 5.85887C25.6419 6.64576 25.3321 7.39997 24.782 7.9561C24.2318 8.51223 23.4862 8.82488 22.7085 8.82549H22.7115ZM22.7115 25.4739C22.1317 25.4739 21.5648 25.2999 21.0827 24.974C20.6006 24.648 20.2248 24.1847 20.0029 23.6426C19.781 23.1005 19.723 22.504 19.8361 21.9285C19.9492 21.3531 20.2284 20.8245 20.6384 20.4096C21.0485 19.9947 21.5709 19.7122 22.1396 19.5977C22.7083 19.4832 23.2977 19.542 23.8334 19.7665C24.3692 19.991 24.827 20.3713 25.1492 20.8591C25.4713 21.347 25.6433 21.9206 25.6433 22.5073C25.6419 23.2942 25.3321 24.0484 24.782 24.6045C24.2318 25.1607 23.4862 25.4733 22.7085 25.4739H22.7115ZM39.93 2.87327C40.5118 2.87132 41.0811 3.044 41.5659 3.36948C42.0507 3.69495 42.4293 4.15859 42.6537 4.70176C42.8781 5.24494 42.9382 5.84325 42.8266 6.42103C42.7149 6.99881 42.4364 7.5301 42.0263 7.94772C41.6162 8.36533 41.093 8.65051 40.5227 8.76719C39.9524 8.88386 39.3608 8.8268 38.8226 8.6032C38.2844 8.37961 37.8238 7.99953 37.4991 7.51104C37.1743 7.02255 37 6.44759 36.9983 5.85887C36.9964 5.46808 37.0707 5.08075 37.2169 4.71906C37.3632 4.35736 37.5785 4.02841 37.8505 3.75102C38.1226 3.47363 38.446 3.25325 38.8023 3.10251C39.1586 2.95176 39.5408 2.87361 39.927 2.87251L39.93 2.87327Z" fill="white"/>
<path d="M45.2678 22.5096C45.269 21.6764 45.0793 20.8542 44.7135 20.1077C44.3477 19.3612 43.8158 18.7108 43.1596 18.2074C42.5034 17.7041 41.7408 17.3616 40.9317 17.2068C40.1226 17.0521 39.289 17.0894 38.4966 17.3156C37.7041 17.5419 36.9743 17.9511 36.3645 18.511C35.7547 19.0709 35.2815 19.7663 34.9821 20.5425C34.6828 21.3187 34.5654 22.1546 34.6392 22.9844C34.713 23.8143 34.976 24.6155 35.4075 25.3252L25.995 35.8506C25.0599 35.1013 23.9013 34.6949 22.7085 34.6978C21.5052 34.7008 20.3381 35.1146 19.396 35.872C18.4539 36.6295 17.7918 37.6865 17.517 38.8719H10.5143C10.2207 37.582 9.46811 36.4465 8.40013 35.6821C7.33214 34.9177 6.02347 34.5779 4.7237 34.7274C3.42393 34.8769 2.22401 35.5053 1.35282 36.4927C0.481624 37.4802 0.000106812 38.7576 0.000106812 40.0813C0.000106812 41.4049 0.481624 42.6823 1.35282 43.6698C2.22401 44.6572 3.42393 45.2856 4.7237 45.4351C6.02347 45.5846 7.33214 45.2447 8.40013 44.4804C9.46811 43.716 10.2207 42.5805 10.5143 41.2906H17.517C17.8105 42.5806 18.5631 43.7162 19.6311 44.4807C20.6992 45.2452 22.008 45.5851 23.3079 45.4355C24.6077 45.286 25.8077 44.6574 26.6789 43.6698C27.5501 42.6822 28.0315 41.4047 28.0313 40.0809C28.0305 39.2699 27.8511 38.4693 27.5063 37.7373L37.0868 27.0419C37.5966 27.3704 38.159 27.6069 38.7488 27.7408V34.8269C37.474 35.124 36.3519 35.8855 35.5965 36.9661C34.8411 38.0468 34.5052 39.3711 34.653 40.6863C34.8007 42.0015 35.4217 43.2157 36.3975 44.0973C37.3734 44.9788 38.6357 45.4661 39.9439 45.4661C41.252 45.4661 42.5144 44.9788 43.4902 44.0973C44.4661 43.2157 45.0871 42.0015 45.2348 40.6863C45.3826 39.3711 45.0467 38.0468 44.2913 36.9661C43.5359 35.8855 42.4138 35.124 41.139 34.8269V27.7408C42.3107 27.4704 43.3571 26.8058 44.1071 25.8555C44.8571 24.9053 45.2663 23.7257 45.2678 22.5096ZM5.32501 43.0672C4.74516 43.0672 4.17834 42.8932 3.69622 42.5673C3.21409 42.2413 2.83832 41.778 2.61643 41.2359C2.39453 40.6938 2.33647 40.0973 2.44959 39.5218C2.56271 38.9464 2.84194 38.4178 3.25195 38.0029C3.66196 37.588 4.18435 37.3054 4.75305 37.191C5.32176 37.0765 5.91123 37.1353 6.44694 37.3598C6.98265 37.5843 7.44053 37.9646 7.76267 38.4524C8.08482 38.9403 8.25676 39.5139 8.25676 40.1006C8.25537 40.887 7.94605 41.6407 7.39654 42.1968C6.84703 42.7528 6.10213 43.0658 5.32501 43.0672ZM22.7115 43.0672C22.1317 43.0672 21.5648 42.8932 21.0827 42.5673C20.6006 42.2413 20.2248 41.778 20.0029 41.2359C19.781 40.6938 19.723 40.0973 19.8361 39.5218C19.9492 38.9464 20.2284 38.4178 20.6384 38.0029C21.0485 37.588 21.5709 37.3054 22.1396 37.191C22.7083 37.0765 23.2977 37.1353 23.8334 37.3598C24.3692 37.5843 24.827 37.9646 25.1492 38.4524C25.4713 38.9403 25.6433 39.5139 25.6433 40.1006C25.6419 40.8875 25.3321 41.6417 24.782 42.1978C24.2318 42.754 23.4862 43.0666 22.7085 43.0672H22.7115ZM36.9953 22.5096C36.9953 21.9228 37.1672 21.3493 37.4893 20.8614C37.8115 20.3736 38.2694 19.9933 38.8051 19.7688C39.3408 19.5442 39.9303 19.4855 40.499 19.6C41.0677 19.7144 41.5901 19.997 42.0001 20.4119C42.4101 20.8268 42.6893 21.3554 42.8024 21.9308C42.9156 22.5063 42.8575 23.1028 42.6356 23.6449C42.4137 24.1869 42.0379 24.6503 41.5558 24.9762C41.0737 25.3022 40.5069 25.4762 39.927 25.4762C39.1499 25.4748 38.405 25.1618 37.8555 24.6058C37.306 24.0497 36.9967 23.2959 36.9953 22.5096ZM42.8775 40.0839C42.8775 40.6706 42.7056 41.2442 42.3834 41.7321C42.0613 42.2199 41.6034 42.6002 41.0677 42.8247C40.532 43.0492 39.9425 43.108 39.3738 42.9935C38.8051 42.8791 38.2827 42.5965 37.8727 42.1816C37.4627 41.7667 37.1835 41.2381 37.0703 40.6627C36.9572 40.0872 37.0153 39.4907 37.2372 38.9486C37.4591 38.4065 37.8348 37.9432 38.317 37.6172C38.7991 37.2913 39.3659 37.1173 39.9458 37.1173C40.7224 37.1187 41.4668 37.4313 42.0162 37.9867C42.5657 38.5421 42.8753 39.295 42.8775 40.0809V40.0839Z" fill="white"/>
</g>
<defs>
<clipPath id="clip0_1_470">
<rect width="168" height="45.92" fill="white"/>
</clipPath>
</defs>
</svg>
