<svg width="168" height="62" viewBox="0 0 168 62" fill="none" xmlns="http://www.w3.org/2000/svg">
<g clip-path="url(#clip0_1_521)">
<path fill-rule="evenodd" clip-rule="evenodd" d="M0 58.0913H116.245L113.942 61.7304H0C0 61.5956 0 58.0913 0 58.0913ZM137.516 56.4739H133.181L141.852 42.8609C141.852 42.8609 143.206 40.0304 141.445 37.0652L129.387 17.2522C129.387 17.2522 128.303 15.3652 129.387 13.613L132.91 8.35652L147 31.2696C147 31.2696 150.658 36.1217 146.729 42.0522L137.516 56.4739ZM147.813 52.2956L153.097 44.3435C153.097 44.3435 154.587 41.1087 158.652 41.1087H164.206L168 47.1739C168 47.1739 164.884 46.9043 163.529 49.0609L157.839 57.687C157.839 57.687 155.942 61.7304 150.929 61.7304H123.968L134.265 46.0956C134.265 46.0956 135.755 44.2087 133.723 41.2435L124.645 26.687C124.645 26.687 122.342 24.5304 124.781 20.8913L127.49 16.8478L140.226 37.3348C140.226 37.3348 142.529 40.1652 140.226 43.5348L130.742 58.3609H150.794C150.794 58.3609 153.097 58.7652 154.994 55.9348L160.006 48.2522C160.006 48.2522 161.09 45.6913 163.665 44.613H159.6C159.6 44.613 157.432 44.7478 155.942 47.1739L151.471 54.0478C151.471 54.0478 149.845 56.8783 146.323 56.8783H139.277L147.813 43.8043C147.813 43.8043 152.419 37.7391 149.168 32.213L134.806 8.76087C134.806 8.76087 133.723 6.73913 134.942 4.85217L138.058 0.269562L154.045 25.8783C154.045 25.8783 156.348 29.6522 156.348 32.6174C156.348 35.5826 154.452 38.9522 153.503 40.7043L146.458 51.6217C146.458 51.6217 145.645 52.7 146.187 53.1043C146.729 53.6435 147.271 52.8348 147.813 52.2956Z" fill="#F99F1C"/>
<path d="M41.1871 41.1087H38.7484V52.9696H41.1871V41.1087Z" fill="#00266B"/>
<path d="M32.9226 31.2696C32.9226 35.987 37.5291 37.0652 38.4774 37.0652H44.7097V29.5174H42.271V34.9087H38.8839C38.4774 34.9087 35.3613 34.1 35.3613 31.1348C35.3613 27.2261 39.0194 27.2261 39.0194 27.2261H44.7097V25.0696H38.6129C36.9871 25.2044 32.9226 26.5522 32.9226 31.2696Z" fill="#00266B"/>
<path d="M61.1032 41.1087H58.5291V53.1044H67.0645V50.9478H61.1032V41.1087Z" fill="#00266B"/>
<path d="M28.7225 41.1087L23.0322 53.1044H25.7419L27.2322 49.6H32.7871L34.2774 53.1044H36.9871L31.4322 41.2435H28.7225V41.1087ZM28.0451 47.5783L29.9419 43.2652L31.7032 47.5783H28.0451Z" fill="#00266B"/>
<path d="M55.5483 44.613C55.5483 41.2435 52.1613 41.1087 52.1613 41.1087H45.1161V52.9696H47.4193V43.1304H50.9419C51.3483 43.1304 52.8387 43.2652 52.8387 45.0174C52.8387 46.9044 50.9419 46.9044 50.9419 46.9044H48.3677L53.3806 53.1044H56.4967L52.8387 48.6565C55.8193 47.4435 55.5483 44.613 55.5483 44.613Z" fill="#00266B"/>
<path d="M7.99356 30.3261H4.47098C3.5226 30.3261 2.57421 30.0565 2.57421 28.7087C2.57421 27.3609 4.06453 27.3609 4.06453 27.3609H10.7032V25.2043H3.11614C3.11614 25.2043 0.135498 25.2043 0.135498 28.8435C0.135498 32.4826 3.25163 32.213 3.25163 32.213H7.31614C7.7226 32.213 8.67098 32.0783 8.67098 33.6957C8.67098 35.313 7.31614 35.0435 7.31614 35.0435H0.270982V37.0652H7.99356C7.99356 37.0652 11.1097 37.0652 11.1097 33.5609C10.9742 29.9217 7.99356 30.3261 7.99356 30.3261Z" fill="#00266B"/>
<path d="M111.639 35.0435H104.865V32.213H110.69V30.0565H104.865V27.0913H111.639V25.2043H102.29V37.0652H111.639V35.0435Z" fill="#00266B"/>
<path d="M28.1806 28.8435V36.9305H30.7548V29.1131C30.7548 24.8 26.6903 25.0696 26.6903 25.0696H23.7097L22.0838 26.9565V25.2044H19.6451V37.0652H22.0838V27.3609H26.4193C28.0451 27.2261 28.1806 28.8435 28.1806 28.8435Z" fill="#00266B"/>
<path d="M16.1225 25.2043H13.6838V37.0652H16.1225V25.2043Z" fill="#00266B"/>
<path d="M54.6001 25.2043H51.8904L46.2001 37.0652H48.9098L50.4001 33.5609H55.9549L57.4452 37.0652H60.1549L54.6001 25.2043ZM55.142 31.5391H51.3485L53.2452 27.3609L55.142 31.5391Z" fill="#00266B"/>
<path d="M99.1742 28.7087C99.1742 25.3391 95.7871 25.2043 95.7871 25.2043H88.7419V37.0652H91.1807V27.0913H94.7032C95.1097 27.0913 96.6 27.2261 96.6 28.9783C96.6 30.8652 94.7032 30.8652 94.7032 30.8652H92.129L97.1419 37.0652H100.258L96.6 32.6174C99.5807 31.4043 99.1742 28.7087 99.1742 28.7087Z" fill="#00266B"/>
<path d="M89.1484 41.1087V53.1044H98.4968V51.0826H91.5871V48.2522H97.413V46.0957H91.5871V43.1304H98.4968V41.1087H89.1484Z" fill="#00266B"/>
<path d="M81.8323 41.1087H78.8516L77.2258 42.9957V41.1087H74.7871V52.9696H77.2258V43.1304H81.5613C83.3226 43.1304 83.3226 44.7478 83.3226 44.7478V52.9696H85.8968V45.1522C85.7613 40.9739 81.8323 41.1087 81.8323 41.1087Z" fill="#00266B"/>
<path d="M80.2065 24.3957C76.5484 24.3957 73.7032 27.3609 73.7032 30.8652C73.7032 34.3696 76.6839 37.3348 80.2065 37.3348C83.8645 37.3348 86.7097 34.3696 86.7097 30.8652C86.7097 27.3609 83.8645 24.3957 80.2065 24.3957ZM80.2065 35.0435C77.9032 35.0435 76.0065 33.1565 76.0065 31C76.0065 28.7087 77.9032 26.8217 80.2065 26.8217C82.5097 26.8217 84.4065 28.7087 84.4065 31C84.271 33.1565 82.5097 35.0435 80.2065 35.0435Z" fill="#00266B"/>
<path d="M71.4 41.1087H68.9613V52.9696H71.4V41.1087Z" fill="#00266B"/>
<path d="M68.8258 25.2043H61.9161V37.0652H64.4903V31.2696L65.8452 33.0217H68.6903C69.9097 33.0217 72.4839 32.213 72.4839 28.8435C72.2129 25.4739 68.8258 25.2043 68.8258 25.2043ZM67.6065 30.8652H64.2194V26.9565H67.6065C67.6065 26.9565 69.7742 26.8217 69.7742 28.9783C69.7742 30.8652 68.0129 30.8652 67.6065 30.8652Z" fill="#00266B"/>
<path d="M109.064 46.2304H105.542C104.594 46.2304 103.645 45.9609 103.645 44.613C103.645 43.2652 105.135 43.2652 105.135 43.2652H111.774V41.1087H104.187C104.187 41.1087 101.206 41.1087 101.206 44.7478C101.206 48.387 104.323 48.1174 104.323 48.1174H108.387C108.794 48.1174 109.742 47.9826 109.742 49.6C109.742 51.2174 108.387 50.9478 108.387 50.9478H101.477V52.9696H109.2C109.2 52.9696 112.316 52.9696 112.316 49.4652C112.316 45.9609 109.064 46.2304 109.064 46.2304Z" fill="#00266B"/>
</g>
<defs>
<clipPath id="clip0_1_521">
<rect width="168" height="62" fill="white"/>
</clipPath>
</defs>
</svg>
